<?xml version="1.0" encoding="UTF-8"?>
<svg version="1.1" xmlns="http://www.w3.org/2000/svg" width="150" height="227">
<path d="M0 0 C4.12473763 17.21950652 6.80019089 34.44444113 9 52 C9.66 51.67 10.32 51.34 11 51 C14.03445945 50.70876581 17.07818232 50.72201833 20.125 50.6875 C20.95515625 50.65849609 21.7853125 50.62949219 22.640625 50.59960938 C28.5398412 50.53950764 33.1166901 51.5592249 38 55 C39.91001883 57.90322861 40 59.54398132 40 63 C38.61043802 67.16868595 36.52599427 68.44928074 33 71 C33.55429688 71.38671875 34.10859375 71.7734375 34.6796875 72.171875 C35.76636719 72.95304687 35.76636719 72.95304687 36.875 73.75 C37.95394531 74.51570313 37.95394531 74.51570313 39.0546875 75.296875 C41.13250431 77.11600779 42.05791082 78.41927697 43 81 C42.85986512 84.85370918 42.34651361 87.39013605 40.4375 90.75 C36.5919823 94.29970865 32.23596309 96 27 96 C23.91531574 103.12037791 21.55740044 110.01107329 20.125 117.625 C19.99311279 118.31142578 19.86122559 118.99785156 19.7253418 119.70507812 C19.15964756 122.94038145 18.94434654 124.83303961 20 128 C21.32 127.67 22.64 127.34 24 127 C24.495 125.02 24.495 125.02 25 123 C23.68 123 22.36 123 21 123 C21.875 118.125 21.875 118.125 23 117 C25.9375 116.75 25.9375 116.75 29 117 C31.84506449 121.26759673 31.50156323 124.99220464 31 130 C28.88521518 135.78783214 25.12933512 140.58044325 20 144 C19.31674092 150.81688369 20.9070787 157.13082246 22.4375 163.75 C22.66759766 164.77738281 22.89769531 165.80476562 23.13476562 166.86328125 C24.29854034 172.04136608 24.29854034 172.04136608 25.55957031 177.19628906 C26.3547551 180.45284404 26.53725523 183.68692611 26 187 C24.66666667 188.33333333 23.33333333 189.66666667 22 191 C22.14612895 194.69432511 22.14612895 194.69432511 23 198 C20.625 198.625 20.625 198.625 18 199 C16 197 16 197 15.5 193.9375 C15.335 192.968125 15.17 191.99875 15 191 C14.34 190.67 13.68 190.34 13 190 C13.02320312 190.69867188 13.04640625 191.39734375 13.0703125 192.1171875 C13.08835937 193.02726563 13.10640625 193.93734375 13.125 194.875 C13.14820312 195.77992188 13.17140625 196.68484375 13.1953125 197.6171875 C13 200 13 200 11 202 C8.4375 201.75 8.4375 201.75 6 201 C4.73762269 198.47524538 4.90143596 196.68799534 4.9375 193.875 C4.94652344 192.96492187 4.95554687 192.05484375 4.96484375 191.1171875 C4.97644531 190.41851562 4.98804687 189.71984375 5 189 C4.01 189 3.02 189 2 189 C1.67 191.31 1.34 193.62 1 196 C-1.375 196.125 -1.375 196.125 -4 196 C-6 194 -6 194 -6.08984375 191.13671875 C-5.98862048 188.84492019 -5.88447343 186.55324881 -5.77734375 184.26171875 C-6.19932407 178.08007716 -9.86762294 174.93290222 -14.1875 170.8125 C-15.82879568 169.24634232 -17.44324599 167.65021767 -19 166 C-19 165.34 -19 164.68 -19 164 C-19.66 164 -20.32 164 -21 164 C-22.5078125 162.3203125 -22.5078125 162.3203125 -24.125 160.125 C-24.66382813 159.40570313 -25.20265625 158.68640625 -25.7578125 157.9453125 C-27 156 -27 156 -27 154 C-27.99 154.0825 -28.98 154.165 -30 154.25 C-35.48257581 154.21677227 -39.89628806 152.04451658 -43.8046875 148.24609375 C-48.87515885 142.43567323 -48.87515885 142.43567323 -49.25 138.125 C-48.97183597 134.64794962 -48.587694 133.32000152 -46 131 C-43.38671875 130.8984375 -43.38671875 130.8984375 -41 131 C-41.3609375 129.86820313 -41.721875 128.73640625 -42.09375 127.5703125 C-42.56264982 126.08858907 -43.03139164 124.60681563 -43.5 123.125 C-43.73847656 122.37863281 -43.97695313 121.63226563 -44.22265625 120.86328125 C-46 115.2265625 -46 115.2265625 -46 113 C-46.86625 113.309375 -46.86625 113.309375 -47.75 113.625 C-50 114 -50 114 -52.1875 113.5 C-54 112 -54 112 -54.75 108.375 C-54.8325 107.26125 -54.915 106.1475 -55 105 C-55.33773437 105.5775 -55.67546875 106.155 -56.0234375 106.75 C-56.46945313 107.4925 -56.91546875 108.235 -57.375 109 C-57.81585938 109.7425 -58.25671875 110.485 -58.7109375 111.25 C-59.13632812 111.8275 -59.56171875 112.405 -60 113 C-60.66 113 -61.32 113 -62 113 C-61.67 111.02 -61.34 109.04 -61 107 C-61.88751953 106.92652344 -61.88751953 106.92652344 -62.79296875 106.8515625 C-71.11441915 106.06421483 -71.11441915 106.06421483 -75 104 C-76.45887389 101.08225221 -76.36823233 99.25271895 -76 96 C-72.58264951 89.9369588 -67.83243988 85.76988747 -62 82 C-61.34 82 -60.68 82 -60 82 C-60.495 81.05125 -60.99 80.1025 -61.5 79.125 C-63 76 -63 76 -63 74 C-63.66 74 -64.32 74 -65 74 C-65.495 72.88625 -65.99 71.7725 -66.5 70.625 C-68.79611207 65.92423238 -72.00485574 62.26569892 -75.48828125 58.39453125 C-77 56 -77 56 -76.83618164 53.62084961 C-75.82410359 50.44868672 -74.49427921 49.00641687 -72.1328125 46.671875 C-71.33504395 45.87644287 -70.53727539 45.08101074 -69.71533203 44.26147461 C-68.86052246 43.43268799 -68.00571289 42.60390137 -67.125 41.75 C-66.25601074 40.89607666 -65.38702148 40.04215332 -64.49169922 39.16235352 C-58.57487581 33.39844671 -52.58093956 27.9975556 -46 23 C-44.95536726 22.16744818 -43.91249149 21.33268854 -42.87109375 20.49609375 C-24.67065271 6 -24.67065271 6 -19 6 C-19 5.34 -19 4.68 -19 4 C-16.77585391 3.13020539 -14.54727408 2.27916816 -12.3125 1.4375 C-11.68666016 1.19064453 -11.06082031 0.94378906 -10.41601562 0.68945312 C-6.5479443 -0.74841632 -3.96399767 -1.26575069 0 0 Z M-52 38 C-56.8747919 41.71412716 -60.74536187 45.77180471 -64 51 C-64 51.66 -64 52.32 -64 53 C-64.99 53 -65.98 53 -67 53 C-66.70480469 53.5878125 -66.40960938 54.175625 -66.10546875 54.78125 C-65.15940484 56.68006378 -64.23384202 58.58906841 -63.3125 60.5 C-60.49356447 66.15930783 -57.22457508 71.5653229 -54 77 C-52.515 76.505 -52.515 76.505 -51 76 C-52.77684549 71.02671288 -55.50856792 66.68458852 -58.34179688 62.25976562 C-60.07153712 59.38732947 -60.99404626 57.33128335 -61.0546875 53.95703125 C-59.71425207 50.19884746 -57.5625799 47.54977953 -54.9375 44.625 C-54.46505859 44.07972656 -53.99261719 43.53445312 -53.50585938 42.97265625 C-52.34782921 41.63916697 -51.17533989 40.31825781 -50 39 C-50.66 38.67 -51.32 38.34 -52 38 Z M-24.1875 49 C-24.785625 49.66 -25.38375 50.32 -26 51 C-25.67 51.66 -25.34 52.32 -25 53 C-23.68 52.34 -22.36 51.68 -21 51 C-21 50.01 -21 49.02 -21 48 C-20.34 47.67 -19.68 47.34 -19 47 C-22.12498166 46.6626154 -22.12498166 46.6626154 -24.1875 49 Z M-14 54 C-13 56 -13 56 -13 56 Z M-13 57 C-12 59 -12 59 -12 59 Z M-13 66 C-12 68 -12 68 -12 68 Z M19 76 C23 77 23 77 23 77 Z M17 94 C12.59874503 104.74621137 9.28343002 116.29602366 10 128 C10.99 128 11.98 128 13 128 C13.09498779 127.45174561 13.18997559 126.90349121 13.2878418 126.33862305 C16.65696598 107.28157702 16.65696598 107.28157702 21.046875 98.8984375 C22.14956136 97.05614776 22.14956136 97.05614776 22 95 C20.35 94.67 18.7 94.34 17 94 Z M-54 102 C-53 104 -53 104 -53 104 Z M-39 135 C-39 135.66 -39 136.32 -39 137 C-40.65 137 -42.3 137 -44 137 C-43.51294288 139.06402968 -43.51294288 139.06402968 -42 141 C-38.43793339 141.81870185 -38.43793339 141.81870185 -35 142 C-35.60183749 139.97954558 -36.27306096 137.97888961 -37 136 C-37.66 135.67 -38.32 135.34 -39 135 Z M12 147 C10.43545841 151.02014661 11.53776026 154.69925681 12.4375 158.75 C12.65889648 159.79607422 12.65889648 159.79607422 12.88476562 160.86328125 C13.24868033 162.5772021 13.62329068 164.28884581 14 166 C14.33 166 14.66 166 15 166 C14.85761163 163.95809019 14.71092972 161.91647955 14.5625 159.875 C14.48128906 158.73804688 14.40007812 157.60109375 14.31640625 156.4296875 C14.02269035 153.2459522 13.56875687 150.14489093 13 147 C12.67 147 12.34 147 12 147 Z M15 166 C15.11362262 167.4800841 15.24122908 168.95910074 15.375 170.4375 C15.44460937 171.26121094 15.51421875 172.08492187 15.5859375 172.93359375 C15.72257812 173.61550781 15.85921875 174.29742187 16 175 C16.66 175.33 17.32 175.66 18 176 C17.34 172.7 16.68 169.4 16 166 C15.67 166 15.34 166 15 166 Z M18 178 C18 179.32 18 180.64 18 182 C18.66 182 19.32 182 20 182 C19.34 180.68 18.68 179.36 18 178 Z " fill="#F9D47C" transform="translate(91,14)"/>
<path d="M0 0 C4.12473763 17.21950652 6.80019089 34.44444113 9 52 C9.66 51.67 10.32 51.34 11 51 C14.03445945 50.70876581 17.07818232 50.72201833 20.125 50.6875 C20.95515625 50.65849609 21.7853125 50.62949219 22.640625 50.59960938 C28.83046656 50.53654673 32.65864413 51.87290136 38 55 C38.65544064 63.14428584 38.65544064 63.14428584 35.75 66.9375 C33.51140422 68.61644683 31.51539534 69.83213788 29 71 C28.67 71.66 28.34 72.32 28 73 C28.66 73 29.32 73 30 73 C30 73.66 30 74.32 30 75 C29.30777344 74.9278125 28.61554688 74.855625 27.90234375 74.78125 C11.21352313 72.43466934 11.21352313 72.43466934 -4.01953125 77.5078125 C-4.61121094 78.04148437 -5.20289062 78.57515625 -5.8125 79.125 C-6.41707031 79.66382812 -7.02164063 80.20265625 -7.64453125 80.7578125 C-8.31548828 81.37269531 -8.31548828 81.37269531 -9 82 C-9.66 81.67 -10.32 81.34 -11 81 C-10.071875 80.319375 -9.14375 79.63875 -8.1875 78.9375 C-3.76436788 75.16267566 -2.25842785 71.55556431 -1.68359375 65.87109375 C-1.50619592 60.84100696 -1.51831027 57.05601209 -3.625 52.4375 C-7.63544249 48.32151955 -10.70768121 45.78618909 -16.5625 45.5625 C-20.43686534 45.77157199 -23.12202457 46.2119613 -26 49 C-26.89592083 52.59919423 -26.89592083 52.59919423 -27 56 C-26.46375 55.319375 -25.9275 54.63875 -25.375 53.9375 C-23 52 -23 52 -20 51.9375 C-16.09932781 53.31898807 -14.94765891 54.32941206 -13 58 C-12.04137677 63.21419367 -12.42417553 67.70358953 -15 72.375 C-18.46989439 77.20183633 -22.88794142 79.12609899 -28.50390625 80.703125 C-39.32085721 83.91514537 -47.5487389 91.84894942 -53.4375 101.3125 C-54.98046875 103.4765625 -54.98046875 103.4765625 -57 105 C-63.05525557 105.70426005 -68.86232202 105.42511866 -74 102 C-74.43127678 97.42846609 -74.07714819 94.07899191 -72 90 C-69.6875 87.76171875 -69.6875 87.76171875 -67 85.6875 C-66.113125 84.99011719 -65.22625 84.29273437 -64.3125 83.57421875 C-62 82 -62 82 -60 82 C-60.495 81.05125 -60.99 80.1025 -61.5 79.125 C-63 76 -63 76 -63 74 C-63.66 74 -64.32 74 -65 74 C-65.495 72.88625 -65.99 71.7725 -66.5 70.625 C-68.79611207 65.92423238 -72.00485574 62.26569892 -75.48828125 58.39453125 C-77 56 -77 56 -76.83618164 53.62084961 C-75.82410359 50.44868672 -74.49427921 49.00641687 -72.1328125 46.671875 C-71.33504395 45.87644287 -70.53727539 45.08101074 -69.71533203 44.26147461 C-68.86052246 43.43268799 -68.00571289 42.60390137 -67.125 41.75 C-66.25601074 40.89607666 -65.38702148 40.04215332 -64.49169922 39.16235352 C-58.57487581 33.39844671 -52.58093956 27.9975556 -46 23 C-44.95536726 22.16744818 -43.91249149 21.33268854 -42.87109375 20.49609375 C-24.67065271 6 -24.67065271 6 -19 6 C-19 5.34 -19 4.68 -19 4 C-16.77585391 3.13020539 -14.54727408 2.27916816 -12.3125 1.4375 C-11.68666016 1.19064453 -11.06082031 0.94378906 -10.41601562 0.68945312 C-6.5479443 -0.74841632 -3.96399767 -1.26575069 0 0 Z M-52 38 C-56.8747919 41.71412716 -60.74536187 45.77180471 -64 51 C-64 51.66 -64 52.32 -64 53 C-64.99 53 -65.98 53 -67 53 C-66.70480469 53.5878125 -66.40960938 54.175625 -66.10546875 54.78125 C-65.15940484 56.68006378 -64.23384202 58.58906841 -63.3125 60.5 C-60.49356447 66.15930783 -57.22457508 71.5653229 -54 77 C-52.515 76.505 -52.515 76.505 -51 76 C-52.77684549 71.02671288 -55.50856792 66.68458852 -58.34179688 62.25976562 C-60.07153712 59.38732947 -60.99404626 57.33128335 -61.0546875 53.95703125 C-59.71425207 50.19884746 -57.5625799 47.54977953 -54.9375 44.625 C-54.46505859 44.07972656 -53.99261719 43.53445312 -53.50585938 42.97265625 C-52.34782921 41.63916697 -51.17533989 40.31825781 -50 39 C-50.66 38.67 -51.32 38.34 -52 38 Z " fill="#67261C" transform="translate(91,14)"/>
<path d="M0 0 C4 1 4 1 5.75 3.5625 C6.1625 4.366875 6.575 5.17125 7 6 C7.66 4.68 8.32 3.36 9 2 C9.43077559 9.84968861 9.76837749 16.44348095 5 23 C2.75 25.5 2.75 25.5 1 27 C2.24196122 25.84545838 3.49392845 24.70167438 4.75 23.5625 C5.44609375 22.92441406 6.1421875 22.28632812 6.859375 21.62890625 C13.1935317 16.80893664 24.15833843 18.52749617 31.65234375 19.44921875 C34.4475809 19.91786136 37.22562034 20.42135843 40 21 C40 20.34 40 19.68 40 19 C39.34 19 38.68 19 38 19 C39.25125384 15.24623848 40.5652404 14.75926711 44 13 C44.66 13 45.32 13 46 13 C46.66 9.7 47.32 6.4 48 3 C50 6 50 6 50 8.875 C48.62807594 13.16226268 46.60707439 14.39062704 43 17 C43.55429688 17.38671875 44.10859375 17.7734375 44.6796875 18.171875 C45.76636719 18.95304687 45.76636719 18.95304687 46.875 19.75 C47.59429687 20.26046875 48.31359375 20.7709375 49.0546875 21.296875 C51.13250431 23.11600779 52.05791082 24.41927697 53 27 C52.80743088 32.29565084 51.69046589 35.19770181 48 39 C41.16758877 42.41620562 30.03159496 40.06098473 23 38 C12.50673686 36.21516459 2.35469768 36.69078475 -8 39 C-8.9075 39.17144531 -9.815 39.34289062 -10.75 39.51953125 C-19.85254783 41.52364334 -27.68754463 46.37752664 -33.1875 54 C-33.785625 54.99 -34.38375 55.98 -35 57 C-35.495 55.515 -35.495 55.515 -36 54 C-35.505 53.505 -35.505 53.505 -35 53 C-35.66 52.67 -36.32 52.34 -37 52 C-37 51.34 -37 50.68 -37 50 C-37.66 50 -38.32 50 -39 50 C-38.731875 49.484375 -38.46375 48.96875 -38.1875 48.4375 C-36.87742051 45.90089219 -36.87742051 45.90089219 -35.9375 42.625 C-32.70944202 35.07134433 -22.16724477 31.00932393 -15 28 C-13.48892409 27.58743651 -11.96798533 27.20842716 -10.4375 26.875 C-9.303125 26.58625 -8.16875 26.2975 -7 26 C-6.505 24.515 -6.505 24.515 -6 23 C-5.34 23 -4.68 23 -4 23 C-3.9175 22.2575 -3.835 21.515 -3.75 20.75 C-2.85402764 17.46476803 -1.48719278 16.25401846 1 14 C1.33 13.34 1.66 12.68 2 12 C1.34 12 0.68 12 0 12 C0 8.04 0 4.08 0 0 Z M29 22 C33 23 33 23 33 23 Z " fill="#EBA137" transform="translate(81,68)"/>
<path d="M0 0 C3.12050587 0.94340875 5.755755 1.84124075 8.5 3.625 C12.93472398 6.06409819 17.23798681 5.12047369 22 4 C22 6.64 22 9.28 22 12 C21.67 12 21.34 12 21 12 C20.505 9.525 20.505 9.525 20 7 C21.1677084 16.16307654 22.76556514 25.03246811 25 34 C25.66 33.34 26.32 32.68 27 32 C28.59138085 36.17737474 29.21278058 39.53160785 29 44 C28.01 44 27.02 44 26 44 C25.505 44.99 25.505 44.99 25 46 C25 45.01 25 44.02 25 43 C24.0925 42.9175 23.185 42.835 22.25 42.75 C18.57991912 41.90305826 17.30133672 40.92092737 15 38 C15 37.34 15 36.68 15 36 C13.8553125 36.1546875 13.8553125 36.1546875 12.6875 36.3125 C11.800625 36.209375 10.91375 36.10625 10 36 C9.54625 35.21625 9.0925 34.4325 8.625 33.625 C7.20626589 30.64944184 7.20626589 30.64944184 3.75390625 30.19921875 C-0.64682153 28.79336711 -2.80660691 26.61555552 -5.6875 23.1875 C-6.14705078 22.66607422 -6.60660156 22.14464844 -7.08007812 21.60742188 C-8.40804457 20.09001656 -9.70462683 18.54532266 -11 17 C-11.76957031 16.10925781 -12.53914063 15.21851563 -13.33203125 14.30078125 C-15 12 -15 12 -15 9 C-13.02053408 7.63636792 -11.0180755 6.30581356 -9 5 C-8.484375 4.2575 -7.96875 3.515 -7.4375 2.75 C-6.963125 2.1725 -6.48875 1.595 -6 1 C-3.375 0.8125 -3.375 0.8125 -1 1 C-0.67 0.67 -0.34 0.34 0 0 Z M26 37 C26 38.32 26 39.64 26 41 C26.66 41 27.32 41 28 41 C27.34 39.68 26.68 38.36 26 37 Z " fill="#FBD77D" transform="translate(83,155)"/>
<path d="M0 0 C0.33 0 0.66 0 1 0 C0.49005587 4.75947857 -0.28398234 9.13544889 -1.5234375 13.76953125 C-2.45459747 18.12766523 -2.6672032 22.56270929 -3 27 C0.3 26.34 3.6 25.68 7 25 C6.63325183 32.21271394 6.63325183 32.21271394 3.6875 35.875 C1.47686368 37.622945 -0.40504913 38.94279779 -3 40 C-3 42.31 -3 44.62 -3 47 C-3.66 47 -4.32 47 -5 47 C-5.33 45.68 -5.66 44.36 -6 43 C-6.73605469 43.10699219 -7.47210938 43.21398437 -8.23046875 43.32421875 C-16.18446375 44.30139383 -16.18446375 44.30139383 -19.875 42.9375 C-24.47463646 38.74371381 -28.67475695 34.42501735 -29.1484375 27.98046875 C-29.24728261 22.49456522 -29.24728261 22.49456522 -28 20 C-21.38780655 20.26135152 -17.46047593 21.02874478 -12 25 C-10.01066417 25.39198735 -8.00999476 25.73348136 -6 26 C-5.97421875 25.20078125 -5.9484375 24.4015625 -5.921875 23.578125 C-4.96039604 4.96039604 -4.96039604 4.96039604 0 0 Z " fill="#652314" transform="translate(111,117)"/>
<path d="M0 0 C2.88524891 1.44262446 3.04274714 3.26504715 4.1875 6.25 C6.59005008 12.24918194 9.48399561 17.76258495 12.64453125 23.3828125 C14 26 14 26 14 28 C19.5784234 25.53893085 21.92174948 20.98297446 25 16 C25.66 15.01 26.32 14.02 27 13 C31.875 13.875 31.875 13.875 33 15 C33.76297974 19.85532565 33.92026874 24.23463939 31.61328125 28.66015625 C28.45447297 32.87418466 26.0722591 35.30924697 21 37 C23.49164464 41.54206054 26.62837417 45.29058464 30 49.1875 C30.53367188 49.81591797 31.06734375 50.44433594 31.6171875 51.09179688 C32.13539062 51.69443359 32.65359375 52.29707031 33.1875 52.91796875 C33.65542969 53.46219482 34.12335938 54.0064209 34.60546875 54.56713867 C36.14184517 56.24578979 36.14184517 56.24578979 39 58 C39.1875 60.625 39.1875 60.625 39 63 C31.26735868 59.62891592 26.16284352 52.34066572 21.5625 45.5625 C18.58599278 41.44439019 16.82621944 39.32489836 11.75 38.4375 C10.16677905 38.29045161 8.58345959 38.14445596 7 38 C2.912516 36.13397469 0.45411075 33.775555 -2 30 C-1.505 28.515 -1.505 28.515 -1 27 C0.485 27.99 0.485 27.99 2 29 C4.05709596 29.24055468 4.05709596 29.24055468 6.1875 29.125 C7.445625 29.08375 8.70375 29.0425 10 29 C10 28.34 10 27.68 10 27 C9.34 27 8.68 27 8 27 C7.67386719 25.99839844 7.34773438 24.99679688 7.01171875 23.96484375 C6.57047685 22.6223418 6.12906129 21.27989693 5.6875 19.9375 C5.47416016 19.28072266 5.26082031 18.62394531 5.04101562 17.94726562 C3.94286851 14.62004377 2.7670325 11.39062231 1.34375 8.1875 C0.05051817 5.1198338 -0.29750209 3.27252302 0 0 Z " fill="#602014" transform="translate(47,127)"/>
<path d="M0 0 C3.86724352 2.25540004 7.95860709 4.91721418 10 9 C10.07092842 11.2072923 10.08415025 13.41667452 10.0625 15.625 C10.05347656 16.81351563 10.04445313 18.00203125 10.03515625 19.2265625 C10.02355469 20.14179687 10.01195313 21.05703125 10 22 C9.67 22 9.34 22 9 22 C8.87882812 21.38511719 8.75765625 20.77023438 8.6328125 20.13671875 C8.46523437 19.32847656 8.29765625 18.52023438 8.125 17.6875 C7.96257812 16.88699219 7.80015625 16.08648437 7.6328125 15.26171875 C7.05521001 12.74698882 7.05521001 12.74698882 5 10 C4.01 9.67 3.02 9.34 2 9 C2 12.96 2 16.92 2 21 C2.66 21 3.32 21 4 21 C3.1875 23.4375 3.1875 23.4375 2 26 C0.515 26.495 0.515 26.495 -1 27 C-1.0928125 28.11375 -1.0928125 28.11375 -1.1875 29.25 C-2.26881954 32.90985076 -3.90996083 33.8193029 -7 36 C-9.7265625 37.2734375 -9.7265625 37.2734375 -12.625 38.375 C-22.23961442 42.27281666 -29.80598432 45.87536577 -36.34375 54.14453125 C-38 56 -38 56 -41 57 C-42.57378316 59.28873616 -42.57378316 59.28873616 -44 62 C-46.66666667 66.88888889 -46.66666667 66.88888889 -50 68 C-49.67 66.02 -49.34 64.04 -49 62 C-49.59167969 61.95101562 -50.18335938 61.90203125 -50.79296875 61.8515625 C-59.11441915 61.06421483 -59.11441915 61.06421483 -63 59 C-64.39935013 56.20129973 -64.25265405 54.09501208 -64 51 C-63.01 50.01 -62.02 49.02 -61 48 C-61 50.97 -61 53.94 -61 57 C-56.18360508 59.40819746 -50.26909729 59.47681407 -45 59 C-42.7325913 57.3621736 -41.798106 55.81958462 -40.421875 53.3984375 C-38.74948751 50.57743224 -36.77283438 48.54717532 -34.4375 46.25 C-33.35275391 45.17492187 -33.35275391 45.17492187 -32.24609375 44.078125 C-31.50488281 43.39234375 -30.76367188 42.7065625 -30 42 C-29.27167969 41.32453125 -28.54335938 40.6490625 -27.79296875 39.953125 C-23.39357578 36.87662642 -18.45892226 35.39964861 -13.41796875 33.64453125 C-7.90776903 31.63171449 -5.57747098 29.98889239 -2.8125 24.75 C-2.544375 24.1725 -2.27625 23.595 -2 23 C-1.34 23 -0.68 23 0 23 C-0.495 22.01 -0.495 22.01 -1 21 C-0.896875 19.741875 -0.79375 18.48375 -0.6875 17.1875 C-0.65080921 14.67418055 -0.71497211 13.41213492 -2.15625 11.328125 C-4.57167272 9.13452682 -6.3330144 8 -9.625 8 C-12.1023609 9.04309933 -13.95810406 10.26060716 -16 12 C-16.3125 9.3125 -16.3125 9.3125 -16 6 C-11.28214033 0.41306092 -7.20862738 -1.40384397 0 0 Z M-12.1875 4 C-12.785625 4.66 -13.38375 5.32 -14 6 C-13.67 6.66 -13.34 7.32 -13 8 C-11.68 7.34 -10.36 6.68 -9 6 C-9 5.01 -9 4.02 -9 3 C-8.34 2.67 -7.68 2.34 -7 2 C-10.12498166 1.6626154 -10.12498166 1.6626154 -12.1875 4 Z M-2 9 C-1 11 -1 11 -1 11 Z " fill="#D9C4BD" transform="translate(79,59)"/>
<path d="M0 0 C0 2.3125 0 2.3125 -1 5 C-4.52143981 7.02127487 -7.95264611 8 -12 8 C-12 8.66 -12 9.32 -12 10 C-10.48019531 9.47599609 -10.48019531 9.47599609 -8.9296875 8.94140625 C-7.57820771 8.48152771 -6.22664053 8.02190591 -4.875 7.5625 C-4.20984375 7.33240234 -3.5446875 7.10230469 -2.859375 6.86523438 C10.14673168 2.46611006 26.68438963 1.83691342 39.7265625 6.33203125 C43.51381333 7.44478021 47.08216756 7.19268028 51 7 C51 7.99 51 8.98 51 10 C44.24022976 10.26800851 37.70064512 9.81046629 31 9 C20.24407935 7.7285936 10.6295806 7.62948273 0 10 C-0.9075 10.17144531 -1.815 10.34289062 -2.75 10.51953125 C-11.85254783 12.52364334 -19.68754463 17.37752664 -25.1875 25 C-25.785625 25.99 -26.38375 26.98 -27 28 C-27.33 27.01 -27.66 26.02 -28 25 C-27.67 24.67 -27.34 24.34 -27 24 C-27.66 23.67 -28.32 23.34 -29 23 C-29 22.34 -29 21.68 -29 21 C-29.66 21 -30.32 21 -31 21 C-30.731875 20.484375 -30.46375 19.96875 -30.1875 19.4375 C-28.87742051 16.90089219 -28.87742051 16.90089219 -27.9375 13.625 C-25.81102727 8.64905382 -21.55024343 6.55907373 -17 4 C-15.72962891 3.24783203 -15.72962891 3.24783203 -14.43359375 2.48046875 C-9.12017721 -0.46421858 -5.91727904 -1.67227451 0 0 Z " fill="#EA9F38" transform="translate(73,97)"/>
<path d="M0 0 C2.64 0 5.28 0 8 0 C7.01 0.495 7.01 0.495 6 1 C6.33 1.99 6.66 2.98 7 4 C7.66 4.33 8.32 4.66 9 5 C9 5.66 9 6.32 9 7 C9.804375 6.835 10.60875 6.67 11.4375 6.5 C14 6 14 6 15 6 C16.66821323 5.67449498 18.33499557 5.34153937 20 5 C17.50390609 7.50502448 15.00035508 9.99965476 12.46484375 12.46484375 C8.10803469 16.72737874 4.06339798 20.70867622 1 26 C-1.27141109 25.88597936 -3.54214552 25.75841495 -5.8125 25.625 C-7.07707031 25.55539063 -8.34164063 25.48578125 -9.64453125 25.4140625 C-13 25 -13 25 -16 23 C-16.5314833 18.97591213 -16.491328 16.78248534 -14.3125 13.3125 C-9.73250338 8.73250338 -6.36098593 6.56024183 0 5 C0.66 4.67 1.32 4.34 2 4 C1.34 2.68 0.68 1.36 0 0 Z " fill="#632218" transform="translate(33,93)"/>
<path d="M0 0 C0 0.66 0 1.32 0 2 C-0.53625 2.22171875 -1.0725 2.4434375 -1.625 2.671875 C-7.74491586 5.4499947 -13.06032973 9.01213481 -18.4375 13 C-19.48454102 13.76521973 -19.48454102 13.76521973 -20.55273438 14.54589844 C-24.25791061 17.34732915 -26.93225164 19.72298438 -29 24 C-24.81641523 23.44151174 -21.97370431 20.95553698 -18.75 18.4375 C-18.19570313 18.01275391 -17.64140625 17.58800781 -17.0703125 17.15039062 C-15.70910589 16.10601659 -14.35394167 15.05377536 -13 14 C-12.34 14.33 -11.68 14.66 -11 15 C-12.25103516 16.12535156 -12.25103516 16.12535156 -13.52734375 17.2734375 C-20.426056 23.52751598 -26.96641636 29.8885723 -33 37 C-33.69480469 37.77214844 -34.38960937 38.54429688 -35.10546875 39.33984375 C-38.25899749 43.02210785 -40.41999598 45.58260631 -40.4375 50.5625 C-40.293125 51.696875 -40.14875 52.83125 -40 54 C-41.5625 52.875 -41.5625 52.875 -43 51 C-42.81310693 45.58010099 -40.42580493 42.51155707 -36.9375 38.625 C-36.46505859 38.07972656 -35.99261719 37.53445312 -35.50585938 36.97265625 C-34.34782921 35.63916697 -33.17533989 34.31825781 -32 33 C-35.79505282 35.36726372 -38.72792213 37.46061197 -41.3125 41.125 C-41.80363281 41.80820312 -42.29476562 42.49140625 -42.80078125 43.1953125 C-44.04475545 44.98738909 -44.04475545 44.98738909 -45 47 C-45.99 47 -46.98 47 -48 47 C-46.84826645 44.53199953 -45.95216435 42.95216435 -44 41 C-44 40.01 -44 39.02 -44 38 C-47.82008595 38.55799008 -49.54762388 40.19856662 -52.1875 42.9375 C-52.88230469 43.64777344 -53.57710937 44.35804687 -54.29296875 45.08984375 C-56.05739074 46.89599787 -56.05739074 46.89599787 -57 49 C-56.34 49 -55.68 49 -55 49 C-52.41455066 52.14483416 -50.2538031 55.61252039 -48 59 C-47.34644531 59.94617188 -46.69289063 60.89234375 -46.01953125 61.8671875 C-45.39433594 62.79789063 -44.76914062 63.72859375 -44.125 64.6875 C-43.55007812 65.53699219 -42.97515625 66.38648437 -42.3828125 67.26171875 C-41 70 -41 70 -40 77 C-46.435 81.95 -46.435 81.95 -53 87 C-53 86.01 -53 85.02 -53 84 C-50.8828125 81.95703125 -50.8828125 81.95703125 -48.125 79.8125 C-47.22007813 79.09707031 -46.31515625 78.38164063 -45.3828125 77.64453125 C-43 76 -43 76 -41 76 C-41.495 75.05125 -41.99 74.1025 -42.5 73.125 C-44 70 -44 70 -44 68 C-44.66 68 -45.32 68 -46 68 C-46.495 66.88625 -46.99 65.7725 -47.5 64.625 C-49.79611207 59.92423238 -53.00485574 56.26569892 -56.48828125 52.39453125 C-58 50 -58 50 -57.83618164 47.62084961 C-56.82410359 44.44868672 -55.49427921 43.00641687 -53.1328125 40.671875 C-52.33504395 39.87644287 -51.53727539 39.08101074 -50.71533203 38.26147461 C-49.86052246 37.43268799 -49.00571289 36.60390137 -48.125 35.75 C-47.25601074 34.89607666 -46.38702148 34.04215332 -45.49169922 33.16235352 C-39.57487581 27.39844671 -33.58093956 21.9975556 -27 17 C-25.95536726 16.16744818 -24.91249149 15.33268854 -23.87109375 14.49609375 C-5.67065271 0 -5.67065271 0 0 0 Z " fill="#6C332C" transform="translate(72,20)"/>
<path d="M0 0 C1.010625 0.0825 2.02125 0.165 3.0625 0.25 C5.90756449 4.51759673 5.56406323 8.24220464 5.0625 13.25 C2.94771518 19.03783214 -0.80816488 23.83044325 -5.9375 27.25 C-6.62317476 34.08310368 -5.02764389 40.42587625 -3.5 47.0625 C-3.26990234 48.09826172 -3.03980469 49.13402344 -2.80273438 50.20117188 C-1.55728949 55.77659474 -1.55728949 55.77659474 0.0625 61.25 C0.046875 63.1875 0.046875 63.1875 -0.1875 65.25 C-0.25453125 65.930625 -0.3215625 66.61125 -0.390625 67.3125 C-1.08476945 69.77175463 -1.88318879 70.73824954 -3.9375 72.25 C-8.02646363 73.01809261 -11.7933735 72.83601601 -15.5 70.9375 C-16.9375 69.25 -16.9375 69.25 -16.9375 66.25 C-8.36607143 67.25 -8.36607143 67.25 -4.9375 68.25 C-5.2675 67.198125 -5.5975 66.14625 -5.9375 65.0625 C-6.77716782 61.86126643 -7.13500904 59.5088992 -6.9375 56.25 C-7.5975 56.25 -8.2575 56.25 -8.9375 56.25 C-11.82759998 47.01200185 -12.29097764 38.83317155 -11.9375 29.25 C-11.6075 30.57 -11.2775 31.89 -10.9375 33.25 C-10.2775 33.25 -9.6175 33.25 -8.9375 33.25 C-9.06125 32.1775 -9.185 31.105 -9.3125 30 C-9.126875 28.14375 -9.126875 28.14375 -8.9375 26.25 C-6.0625 24 -6.0625 24 -2.9375 22.25 C-1.14196585 19.55669878 -0.51053539 18.1039399 0.1875 15.0625 C0.620625 13.1753125 0.620625 13.1753125 1.0625 11.25 C-0.2575 11.58 -1.5775 11.91 -2.9375 12.25 C-2.2775 10.27 -1.6175 8.29 -0.9375 6.25 C-2.2575 6.25 -3.5775 6.25 -4.9375 6.25 C-3.87489612 0.32977839 -3.87489612 0.32977839 0 0 Z " fill="#D7BFBB" transform="translate(116.9375,130.75)"/>
<path d="M0 0 C2.375 0.25 2.375 0.25 5 1 C5.66666667 2.33333333 6.33333333 3.66666667 7 5 C7.78375 5.12375 8.5675 5.2475 9.375 5.375 C12 6 12 6 14.3125 9.0625 C14.869375 10.031875 15.42625 11.00125 16 12 C15.34 12 14.68 12 14 12 C14.75150023 15.27773504 14.75150023 15.27773504 18 17 C20.21582589 17.31560324 20.21582589 17.31560324 22.5625 17.25 C23.34753906 17.25515625 24.13257812 17.2603125 24.94140625 17.265625 C27.22290968 17.18429262 27.22290968 17.18429262 29 15 C29.40047444 12.67724823 29.7397104 10.34260643 30 8 C30.33 8 30.66 8 31 8 C31.3556701 13.33505155 31.3556701 13.33505155 31 16 C29.66666667 17.33333333 28.33333333 18.66666667 27 20 C27.14612895 23.69432511 27.14612895 23.69432511 28 27 C25.625 27.625 25.625 27.625 23 28 C21 26 21 26 20.5 22.9375 C20.335 21.968125 20.17 20.99875 20 20 C19.34 19.67 18.68 19.34 18 19 C18.02320312 19.69867188 18.04640625 20.39734375 18.0703125 21.1171875 C18.09738281 22.48230469 18.09738281 22.48230469 18.125 23.875 C18.14820312 24.77992188 18.17140625 25.68484375 18.1953125 26.6171875 C18 29 18 29 16 31 C13.4375 30.75 13.4375 30.75 11 30 C9.73762269 27.47524538 9.90143596 25.68799534 9.9375 22.875 C9.94652344 21.96492188 9.95554687 21.05484375 9.96484375 20.1171875 C9.97644531 19.41851562 9.98804687 18.71984375 10 18 C9.01 18 8.02 18 7 18 C7 19.65 7 21.3 7 23 C5.02 23 3.04 23 1 23 C0.93941406 21.86820313 0.87882812 20.73640625 0.81640625 19.5703125 C0.73200083 18.08852855 0.64735283 16.6067584 0.5625 15.125 C0.50352539 14.00544922 0.50352539 14.00544922 0.44335938 12.86328125 C0.28426376 8.80013136 0.28426376 8.80013136 -1 5 C-0.72057545 3.32345271 -0.39171753 1.65391846 0 0 Z " fill="#ECA338" transform="translate(86,185)"/>
<path d="M0 0 C0.57492188 0.24105469 1.14984375 0.48210938 1.7421875 0.73046875 C1.30890508 3.2435068 1.0641742 4.44563436 -0.8828125 6.16796875 C-1.3365625 6.68359375 -1.7903125 7.19921875 -2.2578125 7.73046875 C-1.83867413 11.29501603 -0.77300871 13.98671939 0.9921875 17.0859375 C1.435625 17.87291016 1.8790625 18.65988281 2.3359375 19.47070312 C2.8 20.27830078 3.2640625 21.08589844 3.7421875 21.91796875 C4.65899067 23.53638101 5.57566365 25.15486704 6.4921875 26.7734375 C6.89953125 27.4852417 7.306875 28.1970459 7.7265625 28.93041992 C8.43115126 30.17920188 9.10095405 31.44800185 9.7421875 32.73046875 C10.4021875 32.73046875 11.0621875 32.73046875 11.7421875 32.73046875 C10.61216947 29.62291918 9.25971775 26.86305338 7.5546875 24.04296875 C6.9565625 22.94984375 6.3584375 21.85671875 5.7421875 20.73046875 C6.0721875 20.07046875 6.4021875 19.41046875 6.7421875 18.73046875 C14.7421875 30.73046875 14.7421875 30.73046875 14.3671875 33.41796875 C14.0578125 34.56265625 14.0578125 34.56265625 13.7421875 35.73046875 C10.2771875 36.22546875 10.2771875 36.22546875 6.7421875 36.73046875 C7.4021875 38.38046875 8.0621875 40.03046875 8.7421875 41.73046875 C6.07552083 41.73046875 3.40885417 41.73046875 0.7421875 41.73046875 C2.0621875 41.07046875 3.3821875 40.41046875 4.7421875 39.73046875 C2.30337366 30.58491687 -2.5154835 23.27055592 -8.51171875 15.99609375 C-10.2578125 13.73046875 -10.2578125 13.73046875 -10.2578125 11.73046875 C-10.9178125 11.73046875 -11.5778125 11.73046875 -12.2578125 11.73046875 C-10.79155394 8.38225977 -8.92122803 6.03780516 -6.3828125 3.41796875 C-5.36574219 2.34095703 -5.36574219 2.34095703 -4.328125 1.2421875 C-2.2578125 -0.26953125 -2.2578125 -0.26953125 0 0 Z " fill="#683227" transform="translate(27.2578125,57.26953125)"/>
<path d="M0 0 C2.83857246 2.83857246 3.8151351 6.3059166 5.1875 10 C5.47302734 10.73734375 5.75855469 11.4746875 6.05273438 12.234375 C6.76499755 14.13374348 7.38924683 16.06560087 8 18 C6.60804085 20.7839183 4.84424221 20.97898997 2 22 C4.39509338 24.89932357 6.31245243 25.50168276 10 26 C10.33 25.34 10.66 24.68 11 24 C11.33 24.99 11.66 25.98 12 27 C10.5629191 27.05422947 9.12524538 27.09289723 7.6875 27.125 C6.48673828 27.15980469 6.48673828 27.15980469 5.26171875 27.1953125 C3 27 3 27 0 25 C1.57164775 29.47315128 2.92954641 31.9351953 7.1875 34.125 C10.10602521 35.1938731 10.10602521 35.1938731 13.75 34.9375 C16.93977397 35.26188379 17.93416466 35.93541111 20.26953125 38.2265625 C22.59147627 41.09833777 24.80281726 44.03201535 27 47 C28.18982699 48.43224496 29.39634199 49.8509241 30.625 51.25 C31.45064453 52.21679688 31.45064453 52.21679688 32.29296875 53.203125 C33.95382181 55.05270213 33.95382181 55.05270213 35.98828125 56.484375 C38.74322707 58.6264972 40.72274497 60.27930845 41.30078125 63.86669922 C41.60448705 68.59691707 41.35703483 73.27920616 41 78 C42.65 78 44.3 78 46 78 C46 78.66 46 79.32 46 80 C43.625 80.125 43.625 80.125 41 80 C39 78 39 78 38.91015625 75.13671875 C39.01137952 72.84492019 39.11552657 70.55324881 39.22265625 68.26171875 C38.80067593 62.08007716 35.13237706 58.93290222 30.8125 54.8125 C29.17120432 53.24634232 27.55675401 51.65021767 26 50 C26 49.34 26 48.68 26 48 C25.34 48 24.68 48 24 48 C22.4921875 46.3203125 22.4921875 46.3203125 20.875 44.125 C20.33617188 43.40570313 19.79734375 42.68640625 19.2421875 41.9453125 C18 40 18 40 18 38 C17.01 38.0825 16.02 38.165 15 38.25 C9.51742419 38.21677227 5.10371194 36.04451658 1.1953125 32.24609375 C-3.87515885 26.43567323 -3.87515885 26.43567323 -4.25 22.125 C-3.97183597 18.64794962 -3.587694 17.32000152 -1 15 C1.61328125 14.8984375 1.61328125 14.8984375 4 15 C3.71125 14.16855469 3.4225 13.33710938 3.125 12.48046875 C2.75375 11.39378906 2.3825 10.30710938 2 9.1875 C1.62875 8.10855469 1.2575 7.02960938 0.875 5.91796875 C0 3 0 3 0 0 Z " fill="#E8D3C6" transform="translate(46,130)"/>
<path d="M0 0 C3.78725083 1.11274896 7.35560506 0.86064903 11.2734375 0.66796875 C11.2734375 1.65796875 11.2734375 2.64796875 11.2734375 3.66796875 C4.51366726 3.93597726 -2.02591738 3.47843504 -8.7265625 2.66796875 C-19.48248315 1.39656235 -29.0969819 1.29745148 -39.7265625 3.66796875 C-40.6340625 3.83941406 -41.5415625 4.01085937 -42.4765625 4.1875 C-51.57911033 6.19161209 -59.41410713 11.04549539 -64.9140625 18.66796875 C-65.5121875 19.65796875 -66.1103125 20.64796875 -66.7265625 21.66796875 C-67.0565625 20.67796875 -67.3865625 19.68796875 -67.7265625 18.66796875 C-66.35705942 17.10064856 -64.98066189 15.53935172 -63.6015625 13.98046875 C-62.83585937 13.11035156 -62.07015625 12.24023438 -61.28125 11.34375 C-56.12385748 5.94189392 -51.81942677 2.90450404 -44.7265625 0.91796875 C-43.69789062 0.60666016 -43.69789062 0.60666016 -42.6484375 0.2890625 C-29.40666458 -3.62787415 -13.16003327 -4.53573962 0 0 Z " fill="#79340E" transform="translate(112.7265625,103.33203125)"/>
<path d="M0 0 C2 3 2 3 2 5.875 C0.62807594 10.16226268 -1.39292561 11.39062704 -5 14 C-4.44570312 14.38671875 -3.89140625 14.7734375 -3.3203125 15.171875 C-2.59585938 15.69265625 -1.87140625 16.2134375 -1.125 16.75 C-0.40570313 17.26046875 0.31359375 17.7709375 1.0546875 18.296875 C3.13250431 20.11600779 4.05791082 21.41927697 5 24 C4.80743088 29.29565084 3.69046589 32.19770181 0 36 C-3.01861764 37.50930882 -6.12991303 37.18438844 -9.4375 37.1875 C-10.11876953 37.19974609 -10.80003906 37.21199219 -11.50195312 37.22460938 C-15.22829809 37.23555848 -16.81991571 37.12005619 -20 35 C-15.05 35.33 -10.1 35.66 -5 36 C-5.33 34.68 -5.66 33.36 -6 32 C-5.360625 31.62875 -4.72125 31.2575 -4.0625 30.875 C-1.36141928 28.41947207 -1.31592995 26.55421195 -1 23 C-12.15605098 18.86812927 -23.1641547 17.65658704 -35 17 C-35 16.67 -35 16.34 -35 16 C-25.71854592 15.77176752 -17.13029973 16.09572892 -8 18 C-8 17.34 -8 16.68 -8 16 C-8.66 16 -9.32 16 -10 16 C-8.74874616 12.24623848 -7.4347596 11.75926711 -4 10 C-3.34 10 -2.68 10 -2 10 C-1.34 6.7 -0.68 3.4 0 0 Z " fill="#794A41" transform="translate(129,71)"/>
<path d="M0 0 C3.86724352 2.25540004 7.95860709 4.91721418 10 9 C10.07092842 11.2072923 10.08415025 13.41667452 10.0625 15.625 C10.05347656 16.81351563 10.04445313 18.00203125 10.03515625 19.2265625 C10.02355469 20.14179687 10.01195313 21.05703125 10 22 C9.67 22 9.34 22 9 22 C8.87882812 21.38511719 8.75765625 20.77023438 8.6328125 20.13671875 C8.46523437 19.32847656 8.29765625 18.52023438 8.125 17.6875 C7.96257812 16.88699219 7.80015625 16.08648437 7.6328125 15.26171875 C7.05521001 12.74698882 7.05521001 12.74698882 5 10 C4.01 9.67 3.02 9.34 2 9 C2 12.96 2 16.92 2 21 C2.66 21 3.32 21 4 21 C2.25 25.875 2.25 25.875 0 27 C-0.03867188 25.67935547 -0.03867188 25.67935547 -0.078125 24.33203125 C-0.13484375 23.17058594 -0.1915625 22.00914063 -0.25 20.8125 C-0.29640625 19.66394531 -0.3428125 18.51539062 -0.390625 17.33203125 C-1.09800206 13.46412975 -2.2442049 11.76083311 -5 9 C-7.89706707 7.75322994 -7.89706707 7.75322994 -11 8 C-13.86965747 9.81088845 -13.86965747 9.81088845 -16 12 C-16.3125 9.3125 -16.3125 9.3125 -16 6 C-11.28214033 0.41306092 -7.20862738 -1.40384397 0 0 Z M-12.1875 4 C-12.785625 4.66 -13.38375 5.32 -14 6 C-13.67 6.66 -13.34 7.32 -13 8 C-11.68 7.34 -10.36 6.68 -9 6 C-9 5.01 -9 4.02 -9 3 C-8.34 2.67 -7.68 2.34 -7 2 C-10.12498166 1.6626154 -10.12498166 1.6626154 -12.1875 4 Z M-2 9 C-1 11 -1 11 -1 11 Z " fill="#E6A74D" transform="translate(79,59)"/>
<path d="M0 0 C4.875 0.875 4.875 0.875 6 2 C6.76297974 6.85532565 6.92026874 11.23463939 4.61328125 15.66015625 C0.22394076 21.51578402 0.22394076 21.51578402 -3.67578125 23.05859375 C-4.44277344 23.36925781 -5.20976563 23.67992187 -6 24 C-6.33 24.99 -6.66 25.98 -7 27 C-7 25.02 -7 23.04 -7 21 C-7.66 20.67 -8.32 20.34 -9 20 C-8.01 18.02 -7.02 16.04 -6 14 C-8.475 15.485 -8.475 15.485 -11 17 C-9.63446739 14.06639166 -8.04784103 11.61363796 -6.0625 9.0625 C-3.82841786 6.14016762 -1.80685711 3.21219041 0 0 Z " fill="#6A2A16" transform="translate(74,140)"/>
<path d="M0 0 C1.32 0.33 2.64 0.66 4 1 C4.33 2.65 4.66 4.3 5 6 C5.66 6 6.32 6 7 6 C5.38920595 12.44317619 1.63830054 17.36169946 -3 22 C-3.99 22 -4.98 22 -6 22 C-6.83848804 20.54462432 -7.67063934 19.08559627 -8.5 17.625 C-8.9640625 16.81289062 -9.428125 16.00078125 -9.90625 15.1640625 C-11 13 -11 13 -11 11 C-9.68 11.33 -8.36 11.66 -7 12 C-6.67 11.01 -6.34 10.02 -6 9 C-5.33333333 7 -4.66666667 5 -4 3 C-2.68 3 -1.36 3 0 3 C0 2.01 0 1.02 0 0 Z " fill="#F5CE7C" transform="translate(67,133)"/>
<path d="M0 0 C4 1 4 1 5.75 3.5625 C6.36875 4.7690625 6.36875 4.7690625 7 6 C7.66 4.68 8.32 3.36 9 2 C9.50227615 11.15258763 9.438544 17.92737829 3.25 25 C-0.2095479 26.53757684 -3.23726363 26.18813682 -7 26 C-6.505 24.515 -6.505 24.515 -6 23 C-5.34 23 -4.68 23 -4 23 C-3.9175 22.2575 -3.835 21.515 -3.75 20.75 C-2.85402764 17.46476803 -1.48719278 16.25401846 1 14 C1.33 13.34 1.66 12.68 2 12 C1.34 12 0.68 12 0 12 C0 8.04 0 4.08 0 0 Z " fill="#EBA037" transform="translate(81,68)"/>
<path d="M0 0 C0.66 0 1.32 0 2 0 C2.99002695 3.82810423 3.93064811 7.52320573 4.5 11.4375 C4.665 12.283125 4.83 13.12875 5 14 C5.66 14.33 6.32 14.66 7 15 C9.56405534 21.42708145 10.68344148 27.26623409 9 34 C7.38902152 36.13811822 6.5312379 36.90020945 3.87890625 37.3984375 C-2.34504792 37.33546326 -2.34504792 37.33546326 -5.5625 35.6875 C-7 34 -7 34 -7 31 C-2.90234467 31.47805979 1.00520466 31.97203526 5 33 C4.84853516 32.39115967 4.69707031 31.78231934 4.54101562 31.1550293 C3.84755223 28.33556716 3.17373823 25.51173784 2.5 22.6875 C2.26152344 21.73037109 2.02304688 20.77324219 1.77734375 19.78710938 C0.19774783 13.08510954 -0.30291603 6.87703535 0 0 Z " fill="#784841" transform="translate(107,166)"/>
<path d="M0 0 C6.27 0.33 12.54 0.66 19 1 C15 3 15 3 12 3 C8.91531574 10.12037791 6.55740044 17.01107329 5.125 24.625 C4.99311279 25.31142578 4.86122559 25.99785156 4.7253418 26.70507812 C4.15964756 29.94038145 3.94434654 31.83303961 5 35 C6.98 34.505 6.98 34.505 9 34 C7.75 35.5 7.75 35.5 6 37 C4.68 37 3.36 37 2 37 C1.6345329 30.00198183 2.21539804 24.10067006 4.34375 17.41015625 C5.17514694 14.77306909 5.17514694 14.77306909 5 11 C3.68 14.96 2.36 18.92 1 23 C-0.08987852 18.64048592 0.19393895 17.65046228 1.75 13.625 C2.12125 12.66207031 2.4925 11.69914062 2.875 10.70703125 C4.11957959 7.71226162 5.45852382 4.85173094 7 2 C5.35 1.67 3.7 1.34 2 1 C-1.25909517 12.11790621 -3.8226605 23.46207289 -5 35 C-5.33 35 -5.66 35 -6 35 C-6.0272367 32.47909222 -6.04695207 29.95848543 -6.0625 27.4375 C-6.07087891 26.73302734 -6.07925781 26.02855469 -6.08789062 25.30273438 C-6.11556735 19.29688603 -5.80828394 13.45605031 -3.5625 7.8125 C-3.31628906 7.17957031 -3.07007812 6.54664062 -2.81640625 5.89453125 C-1.95462644 3.89470729 -0.97385423 1.94770846 0 0 Z " fill="#FDECC4" transform="translate(106,107)"/>
<path d="M0 0 C0 0.66 0 1.32 0 2 C-0.53625 2.22171875 -1.0725 2.4434375 -1.625 2.671875 C-19.13714245 10.62146598 -48.24738664 31.49477328 -57 49 C-56.34 49 -55.68 49 -55 49 C-52.41455066 52.14483416 -50.2538031 55.61252039 -48 59 C-47.34644531 59.94617188 -46.69289063 60.89234375 -46.01953125 61.8671875 C-45.39433594 62.79789063 -44.76914062 63.72859375 -44.125 64.6875 C-43.55007812 65.53699219 -42.97515625 66.38648437 -42.3828125 67.26171875 C-41 70 -41 70 -40 77 C-46.435 81.95 -46.435 81.95 -53 87 C-53 86.01 -53 85.02 -53 84 C-50.8828125 81.95703125 -50.8828125 81.95703125 -48.125 79.8125 C-47.22007813 79.09707031 -46.31515625 78.38164063 -45.3828125 77.64453125 C-43 76 -43 76 -41 76 C-41.495 75.05125 -41.99 74.1025 -42.5 73.125 C-44 70 -44 70 -44 68 C-44.66 68 -45.32 68 -46 68 C-46.495 66.88625 -46.99 65.7725 -47.5 64.625 C-49.79611207 59.92423238 -53.00485574 56.26569892 -56.48828125 52.39453125 C-58 50 -58 50 -57.83618164 47.62084961 C-56.82410359 44.44868672 -55.49427921 43.00641687 -53.1328125 40.671875 C-52.33504395 39.87644287 -51.53727539 39.08101074 -50.71533203 38.26147461 C-49.86052246 37.43268799 -49.00571289 36.60390137 -48.125 35.75 C-47.25601074 34.89607666 -46.38702148 34.04215332 -45.49169922 33.16235352 C-39.57487581 27.39844671 -33.58093956 21.9975556 -27 17 C-25.95536726 16.16744818 -24.91249149 15.33268854 -23.87109375 14.49609375 C-5.67065271 0 -5.67065271 0 0 0 Z " fill="#E4D0CC" transform="translate(72,20)"/>
<path d="M0 0 C0.33 0 0.66 0 1 0 C1.3556701 5.33505155 1.3556701 5.33505155 1 8 C-0.33333333 9.33333333 -1.66666667 10.66666667 -3 12 C-2.85387105 15.69432511 -2.85387105 15.69432511 -2 19 C-4.375 19.625 -4.375 19.625 -7 20 C-9 18 -9 18 -9.5 14.9375 C-9.7475 13.4834375 -9.7475 13.4834375 -10 12 C-10.66 11.67 -11.32 11.34 -12 11 C-11.97679688 11.69867188 -11.95359375 12.39734375 -11.9296875 13.1171875 C-11.90261719 14.48230469 -11.90261719 14.48230469 -11.875 15.875 C-11.85179688 16.77992188 -11.82859375 17.68484375 -11.8046875 18.6171875 C-12 21 -12 21 -14 23 C-16.5625 22.75 -16.5625 22.75 -19 22 C-20.26237731 19.47524538 -20.09856404 17.68799534 -20.0625 14.875 C-20.05347656 13.96492187 -20.04445313 13.05484375 -20.03515625 12.1171875 C-20.02355469 11.41851562 -20.01195313 10.71984375 -20 10 C-20.99 10 -21.98 10 -23 10 C-23 11.65 -23 13.3 -23 15 C-23.33 15 -23.66 15 -24 15 C-24 13.02 -24 11.04 -24 9 C-20.25 7.875 -20.25 7.875 -18 9 C-17.5859375 11.28515625 -17.5859375 11.28515625 -17.375 14.0625 C-17.30023438 14.98160156 -17.22546875 15.90070313 -17.1484375 16.84765625 C-17.09945312 17.55792969 -17.05046875 18.26820313 -17 19 C-16.34 19 -15.68 19 -15 19 C-15 15.7 -15 12.4 -15 9 C-14.15695313 9.02320313 -13.31390625 9.04640625 -12.4453125 9.0703125 C-11.34960938 9.08835938 -10.25390625 9.10640625 -9.125 9.125 C-8.03445312 9.14820313 -6.94390625 9.17140625 -5.8203125 9.1953125 C-2.8628949 9.30060534 -2.8628949 9.30060534 -1 7 C-0.59952556 4.67724823 -0.2602896 2.34260643 0 0 Z " fill="#EFCD9D" transform="translate(116,193)"/>
<path d="M0 0 C28.90924982 -0.89410051 28.90924982 -0.89410051 38 6 C38.3125 9.1875 38.3125 9.1875 38 12 C36.02 12.99 36.02 12.99 34 14 C34 12.35 34 10.7 34 9 C24.12184138 2.96334751 11.25242997 3.54262987 0 3 C0 2.01 0 1.02 0 0 Z M20 2 C24 3 24 3 24 3 Z " fill="#F2E1D2" transform="translate(90,88)"/>
<path d="M0 0 C0.43155765 5.26500337 0.43155765 5.26500337 0 8 C-2.46474499 10.25348113 -4.27846749 10.83765519 -7.5 11.5625 C-11.34247572 10.69794296 -12.69596507 8.0512895 -15 5 C-15.66 4.67 -16.32 4.34 -17 4 C-2.89108911 -1.44554455 -2.89108911 -1.44554455 0 0 Z " fill="#EEAB41" transform="translate(78,106)"/>
<path d="M0 0 C2.75584223 0.91861408 3.87973053 1.352864 5.4375 3.8125 C6.08507709 9.85655286 6.08507709 9.85655286 4.125 12.75 C2.4375 13.8125 2.4375 13.8125 -0.5625 13.8125 C-0.8925 14.4725 -1.2225 15.1325 -1.5625 15.8125 C-3.2125 11.1925 -4.8625 6.5725 -6.5625 1.8125 C-2.5625 -0.1875 -2.5625 -0.1875 0 0 Z " fill="#EAA43F" transform="translate(53.5625,123.1875)"/>
<path d="M0 0 C0.33 0.66 0.66 1.32 1 2 C0.22265625 3.7265625 0.22265625 3.7265625 -0.9375 5.625 C-1.618125 6.73875 -2.29875 7.8525 -3 9 C-2.34 9 -1.68 9 -1 9 C-1 9.66 -1 10.32 -1 11 C-0.01 11.33 0.98 11.66 2 12 C2 12.33 2 12.66 2 13 C2.20625 13.598125 2.4125 14.19625 2.625 14.8125 C3.09285391 17.54164778 2.40931402 18.67877692 1 21 C0.67 20.01 0.34 19.02 0 18 C-0.5775 18.20625 -1.155 18.4125 -1.75 18.625 C-4.51967567 19.08661261 -5.64561267 18.42944945 -8 17 C-8.84256009 10.25951931 -8.84256009 10.25951931 -6.4765625 6.72265625 C-4.7149418 4.73454146 -2.91428197 2.84083231 -1 1 C-0.67 0.67 -0.34 0.34 0 0 Z " fill="#E9BE82" transform="translate(45,109)"/>
<path d="M0 0 C2.88524891 1.44262446 3.04274714 3.26504715 4.1875 6.25 C6.59005008 12.24918194 9.48399561 17.76258495 12.64453125 23.3828125 C14 26 14 26 14 28 C14.66 28 15.32 28 16 28 C16 28.66 16 29.32 16 30 C14.68 29.67 13.36 29.34 12 29 C12 29.66 12 30.32 12 31 C9.36 31 6.72 31 4 31 C4 30.67 4 30.34 4 30 C5.98 29.67 7.96 29.34 10 29 C10 28.34 10 27.68 10 27 C9.34 27 8.68 27 8 27 C7.67386719 25.99839844 7.34773438 24.99679688 7.01171875 23.96484375 C6.57047685 22.6223418 6.12906129 21.27989693 5.6875 19.9375 C5.47416016 19.28072266 5.26082031 18.62394531 5.04101562 17.94726562 C3.94286851 14.62004377 2.7670325 11.39062231 1.34375 8.1875 C0.05051817 5.1198338 -0.29750209 3.27252302 0 0 Z " fill="#8C5B3E" transform="translate(47,127)"/>
<path d="M0 0 C0.66 0.33 1.32 0.66 2 1 C0.74896484 2.12535156 0.74896484 2.12535156 -0.52734375 3.2734375 C-7.426056 9.52751598 -13.96641636 15.8885723 -20 23 C-20.69480469 23.77214844 -21.38960937 24.54429688 -22.10546875 25.33984375 C-25.25899749 29.02210785 -27.41999598 31.58260631 -27.4375 36.5625 C-27.293125 37.696875 -27.14875 38.83125 -27 40 C-28.5625 38.875 -28.5625 38.875 -30 37 C-29.81310693 31.58010099 -27.42580493 28.51155707 -23.9375 24.625 C-23.46505859 24.07972656 -22.99261719 23.53445312 -22.50585938 22.97265625 C-21.34782921 21.63916697 -20.17533989 20.31825781 -19 19 C-20.65 19.66 -22.3 20.32 -24 21 C-17.31940191 12.51383486 -8.85303827 6.0987597 0 0 Z " fill="#D9C0BC" transform="translate(59,34)"/>
<path d="M0 0 C1.010625 0.0825 2.02125 0.165 3.0625 0.25 C5.27164 3.56371 5.28731553 4.5946021 5.1875 8.4375 C5.16945313 9.33855469 5.15140625 10.23960937 5.1328125 11.16796875 C5.09800781 12.19857422 5.09800781 12.19857422 5.0625 13.25 C4.4025 13.25 3.7425 13.25 3.0625 13.25 C2.4025 14.9 1.7425 16.55 1.0625 18.25 C0.12826355 15.23968256 0.01800089 14.38349732 1.0625 11.25 C-0.2575 11.58 -1.5775 11.91 -2.9375 12.25 C-2.2775 10.27 -1.6175 8.29 -0.9375 6.25 C-2.2575 6.25 -3.5775 6.25 -4.9375 6.25 C-3.87489612 0.32977839 -3.87489612 0.32977839 0 0 Z " fill="#865C55" transform="translate(116.9375,130.75)"/>
<path d="M0 0 C4.42898919 4.35755388 8.5631757 8.93341465 12.6953125 13.57421875 C14.94989277 16.1263112 14.94989277 16.1263112 18 18 C18.1875 20.625 18.1875 20.625 18 23 C9.06779156 19.12870424 3.12544308 9.89417117 -2 2 C-1.34 1.34 -0.68 0.68 0 0 Z " fill="#73361F" transform="translate(68,167)"/>
<path d="M0 0 C3.86724352 2.25540004 7.95860709 4.91721418 10 9 C10.07092842 11.2072923 10.08415025 13.41667452 10.0625 15.625 C10.05347656 16.81351563 10.04445313 18.00203125 10.03515625 19.2265625 C10.02355469 20.14179687 10.01195313 21.05703125 10 22 C9.67 22 9.34 22 9 22 C8.87882812 21.40832031 8.75765625 20.81664063 8.6328125 20.20703125 C6.92335386 10.89907683 6.92335386 10.89907683 1 4 C-2.679121 3.13822391 -6.23630141 2.54031162 -10 3 C-11.87347654 4.89182663 -11.87347654 4.89182663 -13 7 C-12.34 7.33 -11.68 7.66 -11 8 C-12.65 9.32 -14.3 10.64 -16 12 C-16.3125 9.3125 -16.3125 9.3125 -16 6 C-11.28214033 0.41306092 -7.20862738 -1.40384397 0 0 Z " fill="#E6CFBC" transform="translate(79,59)"/>
<path d="M0 0 C0.66 0.33 1.32 0.66 2 1 C-1.17320782 4.53586014 -3.16743695 6.58578031 -8 7 C-8 7.66 -8 8.32 -8 9 C-7.34 9 -6.68 9 -6 9 C-6 9.66 -6 10.32 -6 11 C-7.7385796 12.42168132 -9.54223981 13.76449118 -11.375 15.0625 C-12.87160156 16.13177734 -12.87160156 16.13177734 -14.3984375 17.22265625 C-17 19 -17 19 -19 20 C-19.66 19.67 -20.32 19.34 -21 19 C-18.28330599 10.13171152 -7.81458863 4.26250289 0 0 Z " fill="#692E26" transform="translate(64,25)"/>
<path d="M0 0 C0.66 0 1.32 0 2 0 C1.58044275 5.34935496 0.74264531 8.13981707 -3 12 C-6.12890625 13.58203125 -6.12890625 13.58203125 -9.5625 14.8125 C-10.69816406 15.23144531 -11.83382812 15.65039062 -13.00390625 16.08203125 C-16 17 -16 17 -19 17 C-19.99 17.2475 -19.99 17.2475 -21 17.5 C-23 18 -23 18 -26 18 C-23.80752765 15.53820862 -21.97468248 14.4027533 -18.875 13.31640625 C-18.08609375 13.02830078 -17.2971875 12.74019531 -16.484375 12.44335938 C-14.82935169 11.85655473 -13.17309621 11.27321369 -11.515625 10.69335938 C-5.74984574 8.66295662 -5.74984574 8.66295662 -2 4 C-1.608125 3.2575 -1.21625 2.515 -0.8125 1.75 C-0.544375 1.1725 -0.27625 0.595 0 0 Z " fill="#EBD7C3" transform="translate(77,82)"/>
<path d="M0 0 C-0.33 0.99 -0.66 1.98 -1 3 C-1.804375 3.12375 -2.60875 3.2475 -3.4375 3.375 C-4.283125 3.58125 -5.12875 3.7875 -6 4 C-6.33 4.66 -6.66 5.32 -7 6 C-5.35 6 -3.7 6 -2 6 C-2 6.33 -2 6.66 -2 7 C-3.32064453 7.29003906 -3.32064453 7.29003906 -4.66796875 7.5859375 C-5.82941406 7.84632812 -6.99085937 8.10671875 -8.1875 8.375 C-9.33605469 8.63023438 -10.48460938 8.88546875 -11.66796875 9.1484375 C-14.9448338 9.90788294 -14.9448338 9.90788294 -17.73828125 11.1015625 C-20 12 -20 12 -23 12 C-23 11.34 -23 10.68 -23 10 C-22.21753906 9.75765625 -21.43507812 9.5153125 -20.62890625 9.265625 C-19.61699219 8.93046875 -18.60507813 8.5953125 -17.5625 8.25 C-16.04849609 7.76273438 -16.04849609 7.76273438 -14.50390625 7.265625 C-11.82969396 6.26165285 -11.82969396 6.26165285 -11.15234375 3.859375 C-11.10207031 3.24578125 -11.05179688 2.6321875 -11 2 C-11.99 2 -12.98 2 -14 2 C-14 1.34 -14 0.68 -14 0 C-8.8557044 -2.5721478 -5.30875915 -1.76958638 0 0 Z " fill="#DC9439" transform="translate(84,95)"/>
<path d="M0 0 C0.33 0 0.66 0 1 0 C3.17722521 6.69158482 4.73237329 12.07050682 3 19 C1.38902152 21.13811822 0.5312379 21.90020945 -2.12109375 22.3984375 C-8.34504792 22.33546326 -8.34504792 22.33546326 -11.5625 20.6875 C-13 19 -13 19 -13 16 C-4.42857143 17 -4.42857143 17 -1 18 C-1 16.35 -1 14.7 -1 13 C-0.34 13.66 0.32 14.32 1 15 C0.67 10.05 0.34 5.1 0 0 Z " fill="#A4765F" transform="translate(113,181)"/>
<path d="M0 0 C3.82097005 3.39641782 6.86381886 7.35012295 9 12 C8.8125 15 8.8125 15 8 17 C5.69 17.33 3.38 17.66 1 18 C1.66 19.65 2.32 21.3 3 23 C0.33333333 23 -2.33333333 23 -5 23 C-3.68 22.34 -2.36 21.68 -1 21 C-1.061875 19.8553125 -1.061875 19.8553125 -1.125 18.6875 C-1 16 -1 16 1 13 C0.34 13 -0.32 13 -1 13 C-2.58706842 8.8922935 -3.10191901 7.40767604 -2 3 C-0.02 6.63 1.96 10.26 4 14 C4.66 14 5.32 14 6 14 C4.87811159 10.91480689 3.5383537 8.13194351 1.875 5.3125 C0 2 0 2 0 0 Z " fill="#9F7671" transform="translate(33,76)"/>
<path d="M0 0 C-0.56426152 3.79594117 -2.18251862 5.58710633 -4.875 8.25 C-5.57367188 8.95640625 -6.27234375 9.6628125 -6.9921875 10.390625 C-9 12 -9 12 -12 12 C-12 11.34 -12 10.68 -12 10 C-12.66 10 -13.32 10 -14 10 C-13.71125 9.443125 -13.4225 8.88625 -13.125 8.3125 C-11.91074456 6.00793602 -11.91074456 6.00793602 -11.3125 3.375 C-10 1 -10 1 -6.5625 -0.375 C-3 -1 -3 -1 0 0 Z " fill="#E49D35" transform="translate(56,108)"/>
<path d="M0 0 C-0.41016969 5.00407018 -1.07849755 9.55576 -2.5 14.375 C-4.09939979 19.8909788 -4.67914165 25.27987013 -5 31 C-3.35 30.67 -1.7 30.34 0 30 C-1.25 31.5 -1.25 31.5 -3 33 C-4.32 33 -5.64 33 -7 33 C-7.3654671 26.00198183 -6.78460196 20.10067006 -4.65625 13.41015625 C-3.82485306 10.77306909 -3.82485306 10.77306909 -4 7 C-5.32 10.96 -6.64 14.92 -8 19 C-9.0851554 14.65937839 -8.80758185 13.54616947 -7.3125 9.5 C-6.97863281 8.5615625 -6.64476563 7.623125 -6.30078125 6.65625 C-3.04117647 0 -3.04117647 0 0 0 Z " fill="#CEB7B4" transform="translate(115,111)"/>
<path d="M0 0 C1.75 0.125 1.75 0.125 4 1 C7.91310308 6.06401575 10.36940318 10.53544427 10 17 C10.66 17 11.32 17 12 17 C11.67 17.99 11.34 18.98 11 20 C10.34 20 9.68 20 9 20 C5.03733497 14.47491276 1.76857115 8.20159937 -1 2 C-0.67 1.34 -0.34 0.68 0 0 Z " fill="#60291D" transform="translate(22,72)"/>
<path d="M0 0 C2.83857246 2.83857246 3.8151351 6.3059166 5.1875 10 C5.47302734 10.73734375 5.75855469 11.4746875 6.05273438 12.234375 C6.76499755 14.13374348 7.38924683 16.06560087 8 18 C6.60804085 20.7839183 4.84424221 20.97898997 2 22 C4.39509338 24.89932357 6.31245243 25.50168276 10 26 C10.33 25.34 10.66 24.68 11 24 C11.33 24.99 11.66 25.98 12 27 C3.73514851 27.62376238 3.73514851 27.62376238 0.9375 25.25 C0 23 0 23 0 19 C1.65 19.33 3.3 19.66 5 20 C5 19.01 5 18.02 5 17 C2.36 17.66 -0.28 18.32 -3 19 C-2.34 17.68 -1.68 16.36 -1 15 C0.65 15 2.3 15 4 15 C3.71125 14.16855469 3.4225 13.33710938 3.125 12.48046875 C2.75375 11.39378906 2.3825 10.30710938 2 9.1875 C1.62875 8.10855469 1.2575 7.02960938 0.875 5.91796875 C0 3 0 3 0 0 Z " fill="#EBDBD7" transform="translate(46,130)"/>
<path d="M0 0 C3.7473515 3.41619021 6.36937895 7.28888771 9.125 11.5 C9.56714844 12.16386719 10.00929688 12.82773438 10.46484375 13.51171875 C15.63451579 21.33650936 15.63451579 21.33650936 16.53125 25.41796875 C15.70195617 29.44858069 12.69558754 31.07027382 9.5 33.3125 C8.87996094 33.76689453 8.25992187 34.22128906 7.62109375 34.68945312 C6.09120586 35.80744812 4.54691473 36.90568532 3 38 C3 37.01 3 36.02 3 35 C5.1171875 32.95703125 5.1171875 32.95703125 7.875 30.8125 C8.77992187 30.09707031 9.68484375 29.38164063 10.6171875 28.64453125 C13 27 13 27 15 27 C14.505 26.05125 14.01 25.1025 13.5 24.125 C12 21 12 21 12 19 C11.34 19 10.68 19 10 19 C9.46375 17.845 8.9275 16.69 8.375 15.5 C6.40859639 11.51767903 3.98078565 8.18942408 1.171875 4.76171875 C0 3 0 3 0 0 Z " fill="#D0B4B2" transform="translate(16,69)"/>
<path d="M0 0 C0.33 0 0.66 0 1 0 C0.49005587 4.75947857 -0.28398234 9.13544889 -1.5234375 13.76953125 C-2.45311305 18.12071761 -2.69043767 22.56837089 -3 27 C-1.02 26.67 0.96 26.34 3 26 C2.67 26.66 2.34 27.32 2 28 C0.00045254 28.04254356 -2.00041636 28.04080783 -4 28 C-4.33 27.67 -4.66 27.34 -5 27 C-6.66617115 26.95936168 -8.33388095 26.957279 -10 27 C-8.68 26.67 -7.36 26.34 -6 26 C-5.97421875 25.20078125 -5.9484375 24.4015625 -5.921875 23.578125 C-4.96039604 4.96039604 -4.96039604 4.96039604 0 0 Z " fill="#835751" transform="translate(111,117)"/>
<path d="M0 0 C0.33 0.66 0.66 1.32 1 2 C2.01578125 1.97679688 3.0315625 1.95359375 4.078125 1.9296875 C26.56600635 1.5677316 26.56600635 1.5677316 36 8 C36 9.98 36 11.96 36 14 C34.68 14.33 33.36 14.66 32 15 C32 14.34 32 13.68 32 13 C32.66 13 33.32 13 34 13 C34 11.35 34 9.7 34 8 C30.37 7.34 26.74 6.68 23 6 C23 5.34 23 4.68 23 4 C15.74 4 8.48 4 1 4 C0.67 2.68 0.34 1.36 0 0 Z " fill="#E5B065" transform="translate(89,89)"/>
<path d="M0 0 C1.2065625 0.0309375 1.2065625 0.0309375 2.4375 0.0625 C2.4375 1.0525 2.4375 2.0425 2.4375 3.0625 C5.20014289 3.65982819 7.59782769 4.0625 10.4375 4.0625 C10.1075 4.7225 9.7775 5.3825 9.4375 6.0625 C10.4275 6.3925 11.4175 6.7225 12.4375 7.0625 C8.14702528 7.34853165 4.95628599 6.98104019 0.875 5.625 C-8.25228429 2.89967004 -18.10795358 3.28894871 -27.5625 3.0625 C-27.5625 2.7325 -27.5625 2.4025 -27.5625 2.0625 C-26.84070557 2.03744385 -26.11891113 2.0123877 -25.37524414 1.98657227 C-22.124965 1.87098698 -18.87500312 1.74809226 -15.625 1.625 C-14.48869141 1.58568359 -13.35238281 1.54636719 -12.18164062 1.50585938 C-10.56225586 1.44301758 -10.56225586 1.44301758 -8.91015625 1.37890625 C-7.90992432 1.34224854 -6.90969238 1.30559082 -5.87915039 1.26782227 C-3.03977297 1.01617126 -2.93602111 0.07161027 0 0 Z " fill="#E89F39" transform="translate(109.5625,97.9375)"/>
<path d="M0 0 C1.32 0 2.64 0 4 0 C4 0.66 4 1.32 4 2 C3.34 2 2.68 2 2 2 C2.165 2.639375 2.33 3.27875 2.5 3.9375 C3.15932515 7.97586652 3.08003779 11.91807258 3 16 C4.32 16.33 5.64 16.66 7 17 C6.67 18.98 6.34 20.96 6 23 C4.35 23 2.7 23 1 23 C0.93941406 21.86820313 0.87882812 20.73640625 0.81640625 19.5703125 C0.73200083 18.08852855 0.64735283 16.6067584 0.5625 15.125 C0.50352539 14.00544922 0.50352539 14.00544922 0.44335938 12.86328125 C0.28426376 8.80013136 0.28426376 8.80013136 -1 5 C-0.72057545 3.32345271 -0.39171753 1.65391846 0 0 Z " fill="#E7AA54" transform="translate(86,185)"/>
<path d="M0 0 C1.875 0.3125 1.875 0.3125 4 1 C4.66 1.99 5.32 2.98 6 4 C5.34 4 4.68 4 4 4 C4.7763932 7.0745356 4.7763932 7.0745356 7 9 C6.34 9 5.68 9 5 9 C5 12.3 5 15.6 5 19 C4.34 19 3.68 19 3 19 C2.67 15.7 2.34 12.4 2 9 C0.35 8.67 -1.3 8.34 -3 8 C-2.67 7.01 -2.34 6.02 -2 5 C-1.34 5 -0.68 5 0 5 C0 3.35 0 1.7 0 0 Z " fill="#E6A141" transform="translate(96,193)"/>
<path d="M0 0 C0.66 0.66 1.32 1.32 2 2 C1.9765625 4.3828125 1.9765625 4.3828125 1.625 7.125 C1.45871094 8.49011719 1.45871094 8.49011719 1.2890625 9.8828125 C1.14597656 10.93082031 1.14597656 10.93082031 1 12 C-2.59634744 8.50640535 -5.83451967 4.88901869 -9 1 C-5.75778445 -0.08073852 -3.39597063 -0.21676408 0 0 Z " fill="#E9A438" transform="translate(81,170)"/>
<path d="M0 0 C1.98 0 3.96 0 6 0 C6.09765625 6.15234375 6.09765625 6.15234375 6 8 C5 9 5 9 1.5625 9.1875 C-2 9 -2 9 -4 7 C-4 6.01 -4 5.02 -4 4 C-2.68 4 -1.36 4 0 4 C0 2.68 0 1.36 0 0 Z " fill="#75391A" transform="translate(92,124)"/>
<path d="M0 0 C0.99 0 1.98 0 3 0 C3 2.31 3 4.62 3 7 C2.67 7 2.34 7 2 7 C1.67 5.35 1.34 3.7 1 2 C2.1677084 11.16307654 3.76556514 20.03246811 6 29 C6.66 28.34 7.32 27.68 8 27 C7.67 29.97 7.34 32.94 7 36 C6.34 36 5.68 36 5 36 C-1.49909995 7.32193273 -1.49909995 7.32193273 -1 1 C-0.67 0.67 -0.34 0.34 0 0 Z " fill="#FDF0DA" transform="translate(102,160)"/>
<path d="M0 0 C0.66386719 0.08378906 1.32773438 0.16757813 2.01171875 0.25390625 C8.54720848 1.05425042 8.54720848 1.05425042 15 0 C14.071875 0.86625 14.071875 0.86625 13.125 1.75 C11.18652947 3.80249821 10.09985751 5.43366582 9 8 C5.625 8.125 5.625 8.125 2 8 C0 6 0 6 -0.125 2.875 C-0.08375 1.92625 -0.0425 0.9775 0 0 Z " fill="#E2A246" transform="translate(90,159)"/>
<path d="M0 0 C-0.33 1.32 -0.66 2.64 -1 4 C-1.66 4 -2.32 4 -3 4 C-3 5.32 -3 6.64 -3 8 C-0.69 8.66 1.62 9.32 4 10 C4 10.66 4 11.32 4 12 C4.66 12.33 5.32 12.66 6 13 C4.56465159 13.2226746 3.12654475 13.42761906 1.6875 13.625 C0.88699219 13.74101563 0.08648437 13.85703125 -0.73828125 13.9765625 C-3 14 -3 14 -6 12 C-6.55808445 7.77450343 -6.43824097 5.68657752 -4.125 2.0625 C-2 0 -2 0 0 0 Z " fill="#632419" transform="translate(23,104)"/>
<path d="M0 0 C9.41002278 -0.18451025 9.41002278 -0.18451025 14 1 C8.36036866 6.83410138 8.36036866 6.83410138 4.4375 7.3125 C3.633125 7.209375 2.82875 7.10625 2 7 C0 4 0 4 0 0 Z " fill="#E8A342" transform="translate(95,105)"/>
<path d="M0 0 C1 2 1 2 0.8125 5.5625 C0.70987001 10.64734952 2.69885438 14.5620763 5 19 C-0.625 20.125 -0.625 20.125 -4 19 C-3.00318287 12.54189755 -1.98363508 6.23428168 0 0 Z " fill="#DCAF6E" transform="translate(82,137)"/>
<path d="M0 0 C4 1 4 1 5.375 3.1875 C6.1611131 6.72500893 5.37956016 8.70438407 4 12 C2.68 12 1.36 12 0 12 C0 8.04 0 4.08 0 0 Z " fill="#E9A238" transform="translate(81,68)"/>
<path d="M0 0 C4.98965121 1.2474128 7.22934113 2.65293177 10 7 C10.390625 10.33203125 10.390625 10.33203125 10.25 13.8125 C10.21390625 14.97394531 10.1778125 16.13539062 10.140625 17.33203125 C10.07101563 18.65267578 10.07101563 18.65267578 10 20 C9.34 19.34 8.68 18.68 8 18 C8.0825 16.741875 8.165 15.48375 8.25 14.1875 C8.37692798 12.04685049 8.37692798 12.04685049 8 10 C5.02044871 6.88501456 1.9707582 4.67993616 -2 3 C-1.34 3 -0.68 3 0 3 C0 2.01 0 1.02 0 0 Z M7 6 C8 8 8 8 8 8 Z " fill="#F4E3CB" transform="translate(70,62)"/>
<path d="M0 0 C0.33 0 0.66 0 1 0 C1 2.97 1 5.94 1 9 C0.34 9 -0.32 9 -1 9 C-0.34 15.93 0.32 22.86 1 30 C-4.28945725 22.06581413 -3.21674172 12.13927594 -3 3 C-2.67 4.32 -2.34 5.64 -2 7 C-1.34 7 -0.68 7 0 7 C0 4.69 0 2.38 0 0 Z " fill="#BC9F9A" transform="translate(108,157)"/>
<path d="M0 0 C0.33 0 0.66 0 1 0 C0.67 4.29 0.34 8.58 0 13 C-6.78947368 13 -6.78947368 13 -10.875 10.125 C-11.65617187 9.59132812 -12.43734375 9.05765625 -13.2421875 8.5078125 C-13.82226562 8.01023438 -14.40234375 7.51265625 -15 7 C-15 6.34 -15 5.68 -15 5 C-11.535 4.505 -11.535 4.505 -8 4 C-8.33 5.32 -8.66 6.64 -9 8 C-8.01 8.33 -7.02 8.66 -6 9 C-5.67 9.66 -5.34 10.32 -5 11 C-3.68 11.33 -2.36 11.66 -1 12 C-0.67 8.04 -0.34 4.08 0 0 Z " fill="#F1D1A2" transform="translate(105,130)"/>
<path d="M0 0 C0.33 0.66 0.66 1.32 1 2 C1.66 2.33 2.32 2.66 3 3 C4.6875 4.875 4.6875 4.875 6 7 C5.67 7.99 5.34 8.98 5 10 C1 5.25 1 5.25 1 3 C0.34 3 -0.32 3 -1 3 C-0.67 2.01 -0.34 1.02 0 0 Z M6 1 C6.66 1 7.32 1 8 1 C10.90803514 4.81679612 12.68448876 8.39571066 14 13 C12.62437146 11.71034824 11.29233607 10.37310707 10 9 C10 8.34 10 7.68 10 7 C8.68 6.67 7.36 6.34 6 6 C6 4.35 6 2.7 6 1 Z " fill="#9D746D" transform="translate(16,66)"/>
<path d="M0 0 C2.1875 0.3125 2.1875 0.3125 4 1 C4.38479542 3.61660888 4.42926825 5.36387423 2.921875 7.59765625 C1.64468732 9.09137862 0.32361174 10.54725541 -1 12 C-1.33 12.66 -1.66 13.32 -2 14 C-2.99 14 -3.98 14 -5 14 C-3.84826645 11.53199953 -2.95216435 9.95216435 -1 8 C-1 7.01 -1 6.02 -1 5 C-1.66 4.34 -2.32 3.68 -3 3 C-1.75 1.4375 -1.75 1.4375 0 0 Z " fill="#6C362C" transform="translate(29,53)"/>
<path d="M0 0 C2.66404576 1.01050012 3.97707828 1.97233585 5.8125 4.1875 C7.40256335 7.95343952 7.05090061 10.07663773 6 14 C4.14717224 16.93896818 3.0437711 18.62308266 -0.25 19.8125 C-0.8275 19.874375 -1.405 19.93625 -2 20 C-1.01 18.515 -1.01 18.515 0 17 C0.66 17 1.32 17 2 17 C3.75179535 11.74461396 3.64761951 7.51111219 1.5 2.5 C1.005 1.675 0.51 0.85 0 0 Z " fill="#D8C2BE" transform="translate(127,88)"/>
<path d="M0 0 C6.27 0.33 12.54 0.66 19 1 C15 3 15 3 12 3 C10.29467677 4.94009522 10.29467677 4.94009522 9 7 C8.67 6.34 8.34 5.68 8 5 C7.01 5.99 6.02 6.98 5 8 C5.66 6.02 6.32 4.04 7 2 C5.35 1.67 3.7 1.34 2 1 C1.34 2.32 0.68 3.64 0 5 C0 3.35 0 1.7 0 0 Z " fill="#E2CFC8" transform="translate(106,107)"/>
<path d="M0 0 C0.66 0 1.32 0 2 0 C3.585869 3.171738 3.37866445 6.63513822 3.5625 10.125 C3.60568359 10.87910156 3.64886719 11.63320312 3.69335938 12.41015625 C3.7994832 14.27321888 3.90025001 16.13658524 4 18 C3.01 17.67 2.02 17.34 1 17 C-0.22517308 11.33357449 -0.09228867 5.76291482 0 0 Z " fill="#6B342B" transform="translate(107,166)"/>
<path d="M0 0 C0.66 1.32 1.32 2.64 2 4 C2.53625 3.319375 3.0725 2.63875 3.625 1.9375 C6 0 6 0 9.25 0.25 C10.61125 0.62125 10.61125 0.62125 12 1 C3.55172414 8 3.55172414 8 0 8 C0 5.36 0 2.72 0 0 Z " fill="#6C352C" transform="translate(62,66)"/>
<path d="M0 0 C0 0.99 0 1.98 0 3 C-1.65 2.67 -3.3 2.34 -5 2 C-4.67 3.98 -4.34 5.96 -4 8 C-5.98 8.99 -5.98 8.99 -8 10 C-9.39431504 7.21136993 -9.25660094 5.07921132 -9 2 C-5.5647952 -0.29013653 -4.014669 -0.17842973 0 0 Z " fill="#BCA09C" transform="translate(51,147)"/>
<path d="M0 0 C0.66 0.33 1.32 0.66 2 1 C-1.17320782 4.53586014 -3.16743695 6.58578031 -8 7 C-8 7.66 -8 8.32 -8 9 C-7.34 9 -6.68 9 -6 9 C-6 9.66 -6 10.32 -6 11 C-7.98 11.99 -7.98 11.99 -10 13 C-10.33 12.01 -10.66 11.02 -11 10 C-11.66 9.67 -12.32 9.34 -13 9 C-8.71 6.03 -4.42 3.06 0 0 Z " fill="#6E3731" transform="translate(64,25)"/>
<path d="M0 0 C2 3 2 3 2 5.875 C0.62807594 10.16226268 -1.39292561 11.39062704 -5 14 C-4.01 14.99 -3.02 15.98 -2 17 C-4.64 16.67 -7.28 16.34 -10 16 C-8.74874616 12.24623848 -7.4347596 11.75926711 -4 10 C-3.34 10 -2.68 10 -2 10 C-1.34 6.7 -0.68 3.4 0 0 Z " fill="#D4BCB8" transform="translate(129,71)"/>
<path d="M0 0 C0.99 0.33 1.98 0.66 3 1 C3 1.99 3 2.98 3 4 C4.32 4 5.64 4 7 4 C6.67 2.68 6.34 1.36 6 0 C6.66 0.33 7.32 0.66 8 1 C8 2.98 8 4.96 8 7 C7.01 7 6.02 7 5 7 C4.67 7.66 4.34 8.32 4 9 C4 8.01 4 7.02 4 6 C2.35 5.67 0.7 5.34 -1 5 C-1.33 4.01 -1.66 3.02 -2 2 C-1.34 2 -0.68 2 0 2 C0 1.34 0 0.68 0 0 Z " fill="#EDC885" transform="translate(104,192)"/>
<path d="M0 0 C0.66 0.33 1.32 0.66 2 1 C1.01 2.485 1.01 2.485 0 4 C0.33 4 0.66 4 1 4 C1 5.65 1 7.3 1 9 C0.67 8.34 0.34 7.68 0 7 C-3.3 7.33 -6.6 7.66 -10 8 C-6.91367389 4.7373124 -4.06516496 1.97764782 0 0 Z " fill="#E9AB51" transform="translate(56,101)"/>
<path d="M0 0 C1.20398438 0.0721875 2.40796875 0.144375 3.6484375 0.21875 C5.22395649 0.31253089 6.79947743 0.4062792 8.375 0.5 C9.1690625 0.54769531 9.963125 0.59539062 10.78125 0.64453125 C14.88776304 0.90355333 14.88776304 0.90355333 19 1 C19 1.99 19 2.98 19 4 C12.65065488 4.20666946 6.97205763 4.33689212 1 2 C0.67 1.34 0.34 0.68 0 0 Z " fill="#662314" transform="translate(105,103)"/>
<path d="M0 0 C3.16115776 1.36983503 3.9927092 1.9890638 6 5 C6.1953125 8.13671875 6.1953125 8.13671875 6.125 11.6875 C6.10695313 12.86699219 6.08890625 14.04648438 6.0703125 15.26171875 C6.03550781 16.61716797 6.03550781 16.61716797 6 18 C5.67 18 5.34 18 5 18 C4.87882812 17.40832031 4.75765625 16.81664063 4.6328125 16.20703125 C3.4430845 10.59700613 2.21622088 5.82433132 -1 1 C-0.67 0.67 -0.34 0.34 0 0 Z " fill="#EDCBA6" transform="translate(83,63)"/>
<path d="M0 0 C1.32 0.33 2.64 0.66 4 1 C4 2.98 4 4.96 4 7 C2.02 7 0.04 7 -2 7 C-2.33 5.68 -2.66 4.36 -3 3 C-2.01 3 -1.02 3 0 3 C0 2.01 0 1.02 0 0 Z " fill="#763F18" transform="translate(67,133)"/>
<path d="M0 0 C-0.33 2.31 -0.66 4.62 -1 7 C-1.99 5.68 -2.98 4.36 -4 3 C-7.37462715 3.54723683 -9.08235 4.0549 -12 6 C-12 5.34 -12 4.68 -12 4 C-13.65 4.33 -15.3 4.66 -17 5 C-16 3 -16 3 -12.91015625 1.89453125 C-11.64042969 1.53746094 -10.37070313 1.18039063 -9.0625 0.8125 C-7.79535156 0.44769531 -6.52820313 0.08289063 -5.22265625 -0.29296875 C-2 -1 -2 -1 0 0 Z " fill="#D08E40" transform="translate(78,106)"/>
<path d="M0 0 C0.33 0 0.66 0 1 0 C1.28990619 5.21831143 -0.15119698 7.72679547 -3 12 C-5.93359375 12.36328125 -5.93359375 12.36328125 -9.4375 12.3125 C-10.59121094 12.30863281 -11.74492188 12.30476563 -12.93359375 12.30078125 C-16 12 -16 12 -19 10 C-14.05 10.33 -9.1 10.66 -4 11 C-4.33 9.68 -4.66 8.36 -5 7 C-4.360625 6.5875 -3.72125 6.175 -3.0625 5.75 C-0.79009069 3.82189513 -0.39803561 2.88575819 0 0 Z " fill="#7C4C42" transform="translate(128,96)"/>
<path d="M0 0 C1.32 0.33 2.64 0.66 4 1 C1.83385197 3.30874711 -0.39206608 5.05290181 -3.0625 6.75 C-4.10083984 7.42289062 -4.10083984 7.42289062 -5.16015625 8.109375 C-5.76730469 8.40328125 -6.37445313 8.6971875 -7 9 C-7.66 8.67 -8.32 8.34 -9 8 C-7.8125 5.5 -7.8125 5.5 -6 3 C-3.3125 2.6875 -3.3125 2.6875 -1 3 C-0.67 2.01 -0.34 1.02 0 0 Z " fill="#F5E7D4" transform="translate(55,98)"/>
<path d="M0 0 C5.94 0 11.88 0 18 0 C17.01 1.485 17.01 1.485 16 3 C13.2114711 3.22107787 10.65346819 3.28107535 7.875 3.1875 C7.12089844 3.17396484 6.36679688 3.16042969 5.58984375 3.14648438 C3.72625873 3.11109985 1.86304022 3.05729167 0 3 C0 2.01 0 1.02 0 0 Z " fill="#E0C8B2" transform="translate(90,88)"/>
<path d="M0 0 C0.33 0 0.66 0 1 0 C0.34034961 6.86036401 -1.2362764 13.34443923 -3 20 C-3.33 20 -3.66 20 -4 20 C-3.40546697 6.3667426 -3.40546697 6.3667426 0 0 Z " fill="#6E453D" transform="translate(111,117)"/>
<path d="M0 0 C0 0.66 0 1.32 0 2 C1.32 2.33 2.64 2.66 4 3 C1.44295114 4.27852443 0.71185169 3.71768379 -2 3 C-3.7316239 2.8562677 -5.46698333 2.75425068 -7.203125 2.68359375 C-8.67265625 2.62075195 -8.67265625 2.62075195 -10.171875 2.55664062 C-11.18765625 2.51732422 -12.2034375 2.47800781 -13.25 2.4375 C-14.28125 2.39431641 -15.3125 2.35113281 -16.375 2.30664062 C-18.9165387 2.20074318 -21.45817196 2.09866557 -24 2 C-24 1.67 -24 1.34 -24 1 C-20.75008318 0.83168475 -17.50005436 0.66563638 -14.25 0.5 C-13.32960938 0.45230469 -12.40921875 0.40460938 -11.4609375 0.35546875 C-10.12675781 0.28779297 -10.12675781 0.28779297 -8.765625 0.21875 C-7.94868164 0.17685547 -7.13173828 0.13496094 -6.29003906 0.09179688 C-4.19481876 0.00780937 -2.09690296 0 0 0 Z " fill="#C98037" transform="translate(106,99)"/>
<path d="M0 0 C0.66 0 1.32 0 2 0 C2.66 2.97 3.32 5.94 4 9 C4.66 8.34 5.32 7.68 6 7 C5.67 9.97 5.34 12.94 5 16 C4.34 16 3.68 16 3 16 C2.49411853 14.08487728 1.99551609 12.16783078 1.5 10.25 C1.2215625 9.18265625 0.943125 8.1153125 0.65625 7.015625 C0 4 0 4 0 0 Z " fill="#F8EBCD" transform="translate(104,180)"/>
<path d="M0 0 C2.97 0.495 2.97 0.495 6 1 C6.33 2.98 6.66 4.96 7 7 C3.7 6.34 0.4 5.68 -3 5 C-2.67 4.34 -2.34 3.68 -2 3 C-1.34 3 -0.68 3 0 3 C0 2.01 0 1.02 0 0 Z " fill="#6D2D26" transform="translate(59,161)"/>
<path d="M0 0 C0.66 0.33 1.32 0.66 2 1 C0.73861805 2.34227818 -0.53444559 3.67358677 -1.8125 5 C-2.52019531 5.7425 -3.22789063 6.485 -3.95703125 7.25 C-6 9 -6 9 -9 9 C-9 9.66 -9 10.32 -9 11 C-9.66 10.67 -10.32 10.34 -11 10 C-7.65996398 5.67760044 -4.67248931 2.82522609 0 0 Z " fill="#E8BA73" transform="translate(59,111)"/>
<path d="M0 0 C1.98 0.99 3.96 1.98 6 3 C5.01 3.495 5.01 3.495 4 4 C6.03268602 6.16343011 6.03268602 6.16343011 9 8 C9 8.66 9 9.32 9 10 C5.54537888 9.74410214 4.72618453 8.71373837 2.25 6.125 C0 3 0 3 0 0 Z " fill="#67322D" transform="translate(45,154)"/>
<path d="M0 0 C-0.33 1.65 -0.66 3.3 -1 5 C-3.64 5.33 -6.28 5.66 -9 6 C-8 3 -8 3 -5.625 1.3125 C-3 0 -3 0 0 0 Z " fill="#EEA132" transform="translate(73,97)"/>
<path d="M0 0 C0.66 0 1.32 0 2 0 C4.1519437 3.22791555 4.20086443 4.28400809 4 8 C4.66 8 5.32 8 6 8 C5.67 8.99 5.34 9.98 5 11 C4.34 11 3.68 11 3 11 C0.84694043 7.14243493 -0.39253254 4.44870215 0 0 Z " fill="#61241B" transform="translate(28,81)"/>
<path d="M0 0 C0.33 0.66 0.66 1.32 1 2 C1.99 2 2.98 2 4 2 C2.70700306 4.88437779 1.34058637 6.87219421 -1 9 C-1.33 8.01 -1.66 7.02 -2 6 C-2.66 5.34 -3.32 4.68 -4 4 C-2.68 2.68 -1.36 1.36 0 0 Z " fill="#76423B" transform="translate(34,48)"/>
<path d="M0 0 C0.66 0 1.32 0 2 0 C2.33 1.98 2.66 3.96 3 6 C3.99 6.33 4.98 6.66 6 7 C5.67 4.69 5.34 2.38 5 0 C6.5 1.1875 6.5 1.1875 8 3 C8.1875 5.6875 8.1875 5.6875 8 8 C5.625 8.625 5.625 8.625 3 9 C0.23776722 6.23776722 0.42143709 3.79293383 0 0 Z " fill="#FAEDD2" transform="translate(106,204)"/>
<path d="M0 0 C0.66 0.33 1.32 0.66 2 1 C2 1.33 2 1.66 2 2 C2.99 2.33 3.98 2.66 5 3 C0.71798998 5.48954071 -1.2362521 6.12825608 -6 5 C-8.26857146 5.84077872 -8.26857146 5.84077872 -10 7 C-7.5447806 2.81168455 -4.50419967 1.55599625 0 0 Z " fill="#DABDA9" transform="translate(61,94)"/>
<path d="M0 0 C0.99 0.33 1.98 0.66 3 1 C3.25 8.625 3.25 8.625 1 12 C0.01 12 -0.98 12 -2 12 C-1.505 11.2575 -1.505 11.2575 -1 10.5 C0.43636358 6.90909106 0.12851462 3.85543873 0 0 Z " fill="#602A22" transform="translate(128,93)"/>
<path d="M0 0 C0.33 0 0.66 0 1 0 C1.4485551 8.17367067 1.40744316 13.97563746 -3 21 C-3.33 20.34 -3.66 19.68 -4 19 C-3.25853045 17.14632613 -2.51628893 15.29295611 -1.76953125 13.44140625 C-0.39263102 9.07306794 -0.24264251 4.55163886 0 0 Z " fill="#CC935E" transform="translate(89,70)"/>
<path d="M0 0 C1.32 0.66 2.64 1.32 4 2 C4 2.66 4 3.32 4 4 C4.66 4 5.32 4 6 4 C6 4.66 6 5.32 6 6 C4.68 5.67 3.36 5.34 2 5 C2 5.66 2 6.32 2 7 C-0.64 7 -3.28 7 -6 7 C-6 6.67 -6 6.34 -6 6 C-4.02 5.67 -2.04 5.34 0 5 C0 3.35 0 1.7 0 0 Z " fill="#8C5741" transform="translate(57,151)"/>
<path d="M0 0 C0.66 0.33 1.32 0.66 2 1 C2 2.65 2 4.3 2 6 C-0.31 6 -2.62 6 -5 6 C-3.86695008 2.60085025 -2.87481525 1.94745549 0 0 Z " fill="#622112" transform="translate(95,127)"/>
<path d="M0 0 C0.99 0.66 1.98 1.32 3 2 C2.20335937 2.54527344 2.20335937 2.54527344 1.390625 3.1015625 C-3.15144754 6.33405938 -6.23059286 9.1535375 -9 14 C-9.33 13.01 -9.66 12.02 -10 11 C-8.52116808 9.35386588 -7.04192523 7.70810092 -5.5625 6.0625 C-4.73878906 5.14597656 -3.91507813 4.22945313 -3.06640625 3.28515625 C-1 1 -1 1 0 0 Z " fill="#90521B" transform="translate(55,111)"/>
<path d="M0 0 C-0.33 1.32 -0.66 2.64 -1 4 C-1.66 4 -2.32 4 -3 4 C-3 5.98 -3 7.96 -3 10 C-3.66 10 -4.32 10 -5 10 C-5.33 10.66 -5.66 11.32 -6 12 C-6.32644414 7.83783725 -6.40650982 5.63686538 -4.125 2.0625 C-2 0 -2 0 0 0 Z " fill="#6E3D35" transform="translate(23,104)"/>
<path d="M0 0 C-0.66 1.32 -1.32 2.64 -2 4 C-2.721875 3.979375 -3.44375 3.95875 -4.1875 3.9375 C-6.91925138 3.99820559 -9.34256091 4.39258535 -12 5 C-8.55392327 1.00980589 -5.20909181 0 0 0 Z " fill="#E5A94E" transform="translate(70,96)"/>
<path d="M0 0 C2.125 0.9375 2.125 0.9375 4 2 C3.67 3.65 3.34 5.3 3 7 C1.0625 6.25 1.0625 6.25 -1 5 C-1.75 2.875 -1.75 2.875 -2 1 C-1.34 0.67 -0.68 0.34 0 0 Z " fill="#EDC579" transform="translate(70,163)"/>
<path d="M0 0 C2.875 -0.1875 2.875 -0.1875 6 0 C8.20914 3.31371 8.22481553 4.3446021 8.125 8.1875 C8.10695313 9.08855469 8.08890625 9.98960937 8.0703125 10.91796875 C8.03550781 11.94857422 8.03550781 11.94857422 8 13 C7.67 13 7.34 13 7 13 C6.34 9.7 5.68 6.4 5 3 C2.03 2.505 2.03 2.505 -1 2 C-0.67 1.34 -0.34 0.68 0 0 Z " fill="#D2BCB7" transform="translate(114,131)"/>
<path d="M0 0 C0.33 0.99 0.66 1.98 1 3 C-5.435 7.95 -5.435 7.95 -12 13 C-12 12.01 -12 11.02 -12 10 C-9.8828125 7.95703125 -9.8828125 7.95703125 -7.125 5.8125 C-6.22007813 5.09707031 -5.31515625 4.38164063 -4.3828125 3.64453125 C-2 2 -2 2 0 2 C0 1.34 0 0.68 0 0 Z " fill="#E2CEC8" transform="translate(31,94)"/>
<path d="M0 0 C0.33 0 0.66 0 1 0 C1 3.63 1 7.26 1 11 C0.67 10.34 0.34 9.68 0 9 C-1.32 8.67 -2.64 8.34 -4 8 C-2.68 5.36 -1.36 2.72 0 0 Z " fill="#FCDD8F" transform="translate(99,130)"/>
<path d="M0 0 C0.66 0.33 1.32 0.66 2 1 C0.68 2.65 -0.64 4.3 -2 6 C-1.34 6.33 -0.68 6.66 0 7 C-1.65 8.32 -3.3 9.64 -5 11 C-5.3125 8.3125 -5.3125 8.3125 -5 5 C-2.5 2.125 -2.5 2.125 0 0 Z " fill="#DBBFBB" transform="translate(68,60)"/>
<path d="M0 0 C1.32 0 2.64 0 4 0 C4 0.66 4 1.32 4 2 C4.99 2 5.98 2 7 2 C7 2.99 7 3.98 7 5 C4.03 4.505 4.03 4.505 1 4 C0.67 2.68 0.34 1.36 0 0 Z " fill="#7A3B1A" transform="translate(100,197)"/>
<path d="M0 0 C2.375 0.25 2.375 0.25 5 1 C6.1875 3 6.1875 3 7 5 C7.66 5.33 8.32 5.66 9 6 C8.67 7.32 8.34 8.64 8 10 C6.66370254 8.52351062 5.33103329 7.0437367 4 5.5625 C3.2575 4.73878906 2.515 3.91507813 1.75 3.06640625 C0 1 0 1 0 0 Z " fill="#DA9745" transform="translate(73,172)"/>
<path d="M0 0 C0.66 0 1.32 0 2 0 C2.33 0.66 2.66 1.32 3 2 C3.66 2 4.32 2 5 2 C4.34 3.32 3.68 4.64 3 6 C2.01 6 1.02 6 0 6 C0 5.34 0 4.68 0 4 C-0.66 4 -1.32 4 -2 4 C-1.34 2.68 -0.68 1.36 0 0 Z " fill="#E99D37" transform="translate(44,114)"/>
<path d="M0 0 C0.33 0.99 0.66 1.98 1 3 C1.66 3.33 2.32 3.66 3 4 C1.625 6 1.625 6 0 8 C-0.66 8 -1.32 8 -2 8 C-1.67 6.02 -1.34 4.04 -1 2 C-2.65 2 -4.3 2 -6 2 C-2.25 0 -2.25 0 0 0 Z " fill="#F1E7E4" transform="translate(31,119)"/>
<path d="M0 0 C0.928125 0.20625 1.85625 0.4125 2.8125 0.625 C2.214375 0.91375 1.61625 1.2025 1 1.5 C-1.38077792 2.67242026 -1.38077792 2.67242026 -4.1875 4.625 C-5.1775 4.625 -6.1675 4.625 -7.1875 4.625 C-5.78075725 0.40477175 -4.42930454 -0.52109465 0 0 Z " fill="#834011" transform="translate(63.1875,107.375)"/>
<path d="M0 0 C0.99 1.32 1.98 2.64 3 4 C2.34 5.32 1.68 6.64 1 8 C0.34 8 -0.32 8 -1 8 C-1.625 5.125 -1.625 5.125 -2 2 C-1.34 1.34 -0.68 0.68 0 0 Z " fill="#A67B69" transform="translate(56,146)"/>
<path d="M0 0 C0.33 0.66 0.66 1.32 1 2 C-0.3125 4.625 -0.3125 4.625 -2 7 C-2.66 7 -3.32 7 -4 7 C-4 7.99 -4 8.98 -4 10 C-4.66 10 -5.32 10 -6 10 C-4.6302836 6.00499382 -2.74277578 3.19990508 0 0 Z " fill="#EBBA6E" transform="translate(45,109)"/>
<path d="M0 0 C0.66 0.99 1.32 1.98 2 3 C-0.64 5.31 -3.28 7.62 -6 10 C-6.66 9.67 -7.32 9.34 -8 9 C-6.576875 7.88625 -6.576875 7.88625 -5.125 6.75 C-2.67467599 4.72154781 -1.12674637 3.0422152 0 0 Z " fill="#8E4B15" transform="translate(88,86)"/>
<path d="M0 0 C0.33 0 0.66 0 1 0 C1 2.64 1 5.28 1 8 C1.66 8 2.32 8 3 8 C1.25 12.875 1.25 12.875 -1 14 C-0.67 9.38 -0.34 4.76 0 0 Z " fill="#E9B562" transform="translate(80,72)"/>
<path d="M0 0 C2 1.375 2 1.375 4 4 C4.35791096 7.3580469 4.23115823 10.63536357 4 14 C3.67 14 3.34 14 3 14 C2.67 10.7 2.34 7.4 2 4 C1.34 4 0.68 4 0 4 C0 2.68 0 1.36 0 0 Z " fill="#8A5B4F" transform="translate(74,68)"/>
<path d="M0 0 C0 3.92823101 -1.51754449 5.06618894 -4 8 C-4.33 8.66 -4.66 9.32 -5 10 C-5.99 10 -6.98 10 -8 10 C-6.34908222 5.70761377 -3.26245434 3.1206085 0 0 Z " fill="#DFC9C6" transform="translate(32,57)"/>
<path d="M0 0 C1.32 0 2.64 0 4 0 C4 0.66 4 1.32 4 2 C3.34 2 2.68 2 2 2 C2 4.31 2 6.62 2 9 C0.4375 7.3125 0.4375 7.3125 -1 5 C-0.6875 2.25 -0.6875 2.25 0 0 Z " fill="#DB9E47" transform="translate(86,185)"/>
<path d="M0 0 C0 1.65 0 3.3 0 5 C-3.16115776 3.63016497 -3.9927092 3.0109362 -6 0 C-3 -1 -3 -1 0 0 Z " fill="#7A432A" transform="translate(86,185)"/>
<path d="M0 0 C0.99 0.33 1.98 0.66 3 1 C3 2.98 3 4.96 3 7 C-0.875 4.375 -0.875 4.375 -2 1 C-1.34 0.67 -0.68 0.34 0 0 Z " fill="#601F13" transform="translate(19,65)"/>
<path d="M0 0 C2.64 0 5.28 0 8 0 C8.33 0.66 8.66 1.32 9 2 C8.01 2 7.02 2 6 2 C5.67 2.66 5.34 3.32 5 4 C3.02 3.34 1.04 2.68 -1 2 C-0.67 1.34 -0.34 0.68 0 0 Z " fill="#E3B575" transform="translate(72,62)"/>
<path d="M0 0 C0.66 0 1.32 0 2 0 C0.95125002 2.62187494 0.35068687 3.79371361 -2.125 5.25 C-2.74375 5.4975 -3.3625 5.745 -4 6 C-4.66 5.34 -5.32 4.68 -6 4 C-3 2 -3 2 0 2 C0 1.34 0 0.68 0 0 Z " fill="#6A312C" transform="translate(72,20)"/>
<path d="M0 0 C2.4044979 1.88178097 2.99790027 2.99224715 3.8125 6 C4 9 4 9 2 12 C0.86235649 7.73383684 0 4.43513689 0 0 Z " fill="#5B2018" transform="translate(111,187)"/>
<path d="M0 0 C1.4540625 0.0309375 1.4540625 0.0309375 2.9375 0.0625 C2.9375 1.0525 2.9375 2.0425 2.9375 3.0625 C1.761875 2.9696875 1.761875 2.9696875 0.5625 2.875 C-0.736875 2.9678125 -0.736875 2.9678125 -2.0625 3.0625 C-2.7225 4.0525 -3.3825 5.0425 -4.0625 6.0625 C-4.105221 4.39638095 -4.10313832 2.72867115 -4.0625 1.0625 C-3.0625 0.0625 -3.0625 0.0625 0 0 Z " fill="#825C5C" transform="translate(48.0625,146.9375)"/>
<path d="M0 0 C0.66 0.33 1.32 0.66 2 1 C0.68 2.65 -0.64 4.3 -2 6 C-3.32 5.67 -4.64 5.34 -6 5 C-6 4.01 -6 3.02 -6 2 C-4.68 2 -3.36 2 -2 2 C-1.34 1.34 -0.68 0.68 0 0 Z " fill="#EBA843" transform="translate(70,108)"/>
<path d="M0 0 C0 0.99 0 1.98 0 3 C-4.29 2.67 -8.58 2.34 -13 2 C-13 1.67 -13 1.34 -13 1 C-8.62426048 0.40667939 -4.42471556 -0.13827236 0 0 Z " fill="#FCE7CC" transform="translate(119,90)"/>
<path d="M0 0 C0 0.66 0 1.32 0 2 C-0.66 2 -1.32 2 -2 2 C-2.33 3.32 -2.66 4.64 -3 6 C-6 2.25 -6 2.25 -6 0 C-3 -1 -3 -1 0 0 Z " fill="#6D382F" transform="translate(30,79)"/>
<path d="M0 0 C0.66 1.32 1.32 2.64 2 4 C2.99 3.34 3.98 2.68 5 2 C4.67 3.65 4.34 5.3 4 7 C2.68 7.33 1.36 7.66 0 8 C0 5.36 0 2.72 0 0 Z " fill="#7D4239" transform="translate(62,66)"/>
<path d="M0 0 C0.66 0.33 1.32 0.66 2 1 C-1.96 4.465 -1.96 4.465 -6 8 C-6.66 7.34 -7.32 6.68 -8 6 C-5.36 4.02 -2.72 2.04 0 0 Z " fill="#B17F76" transform="translate(59,34)"/>
<path d="M0 0 C3 3.75 3 3.75 3 6 C0.69 5.67 -1.62 5.34 -4 5 C-2.68 3.35 -1.36 1.7 0 0 Z " fill="#DB9443" transform="translate(88,90)"/>
<path d="M0 0 C2.97 0 5.94 0 9 0 C5.71536341 2.18975773 2.79303725 2.99806563 -1 4 C-0.67 2.68 -0.34 1.36 0 0 Z " fill="#6A382E" transform="translate(59,92)"/>
<path d="M0 0 C0.33 0.66 0.66 1.32 1 2 C-5.625 3.25 -5.625 3.25 -9 1 C-5.8035914 -0.06546953 -3.34252724 -0.07427838 0 0 Z " fill="#E8B04D" transform="translate(81,170)"/>
<path d="M0 0 C0.66 0.33 1.32 0.66 2 1 C1.67 3.31 1.34 5.62 1 8 C-3 3.25 -3 3.25 -3 1 C-2.01 0.67 -1.02 0.34 0 0 Z " fill="#DB9B41" transform="translate(76,105)"/>
<path d="M0 0 C-0.33 0.66 -0.66 1.32 -1 2 C-0.01 2.33 0.98 2.66 2 3 C-4.625 3.25 -4.625 3.25 -8 1 C-2.25 -1.125 -2.25 -1.125 0 0 Z " fill="#BF8037" transform="translate(120,102)"/>
<path d="M0 0 C0.33 0.99 0.66 1.98 1 3 C1.66 3.33 2.32 3.66 3 4 C1.02 5.32 -0.96 6.64 -3 8 C-3 7.01 -3 6.02 -3 5 C-2.34 5 -1.68 5 -1 5 C-0.67 3.35 -0.34 1.7 0 0 Z " fill="#E8AC53" transform="translate(78,86)"/>
<path d="M0 0 C3.0916909 2.52956528 3.90931332 5.22454612 5 9 C4.34 9 3.68 9 3 9 C0.56839395 5.63316085 0 4.26649636 0 0 Z " fill="#C6A9A4" transform="translate(30,79)"/>
<path d="M0 0 C0 1.32 0 2.64 0 4 C-1.65 4 -3.3 4 -5 4 C-5 3.01 -5 2.02 -5 1 C-2 0 -2 0 0 0 Z " fill="#6A2A11" transform="translate(69,135)"/>
<path d="M0 0 C0.33 0.66 0.66 1.32 1 2 C1.66 2 2.32 2 3 2 C2.67 2.99 2.34 3.98 2 5 C1.01 5 0.02 5 -1 5 C-1.66 5.99 -2.32 6.98 -3 8 C-3 6.35 -3 4.7 -3 3 C-2.01 3 -1.02 3 0 3 C0 2.01 0 1.02 0 0 Z " fill="#E9AA4F" transform="translate(41,116)"/>
<path d="M0 0 C-0.99 0.33 -1.98 0.66 -3 1 C-3.33 1.66 -3.66 2.32 -4 3 C-5.32 3 -6.64 3 -8 3 C-8 2.01 -8 1.02 -8 0 C-4.94736336 -0.98120464 -3.05263664 -0.98120464 0 0 Z " fill="#E2AA4E" transform="translate(109,107)"/>
<path d="M0 0 C0.66 0.33 1.32 0.66 2 1 C1.34 2.32 0.68 3.64 0 5 C-1.32 4.34 -2.64 3.68 -4 3 C-3 1 -3 1 0 0 Z " fill="#5E2118" transform="translate(53,34)"/>
</svg>
