<?xml version="1.0" standalone="no"?>
<!DOCTYPE svg PUBLIC "-//W3C//DTD SVG 20010904//EN"
 "http://www.w3.org/TR/2001/REC-SVG-20010904/DTD/svg10.dtd">
<svg version="1.0" xmlns="http://www.w3.org/2000/svg"
 width="150.000000pt" height="227.000000pt" viewBox="0 0 150.000000 227.000000"
 preserveAspectRatio="xMidYMid meet">

<g transform="translate(0.000000,227.000000) scale(0.100000,-0.100000)"
fill="#000000" stroke="none">
<path d="M840 2110 c-139 -44 -336 -179 -520 -355 -151 -145 -165 -162 -149
-184 84 -113 159 -237 159 -258 0 -4 -23 -23 -50 -42 -70 -47 -110 -95 -110
-132 0 -36 19 -45 105 -51 l60 -4 35 49 c38 53 132 137 183 164 18 9 63 28
102 43 59 22 73 32 92 65 64 113 -14 254 -92 169 -22 -23 -25 -25 -31 -9 -10
26 22 82 57 101 49 25 122 15 160 -22 45 -42 59 -76 59 -139 0 -66 -34 -142
-75 -169 -15 -10 -24 -20 -22 -23 9 -8 51 19 77 50 l26 29 134 -4 c119 -3 141
-6 185 -28 45 -23 50 -29 53 -62 3 -30 -1 -40 -22 -53 -28 -19 -97 -22 -138
-6 -55 21 -184 31 -272 21 -175 -20 -301 -81 -367 -177 -37 -54 -33 -68 5 -18
70 91 243 159 406 159 52 1 143 -7 202 -18 119 -20 157 -15 199 30 48 51 12
143 -62 159 -43 10 -42 19 7 53 50 36 59 51 50 87 -12 46 -70 65 -196 65 -69
0 -110 4 -110 10 0 22 -51 357 -60 390 -33 132 -29 127 -80 110z m-328 -278
c-53 -54 -123 -133 -155 -174 l-57 -76 60 -102 c33 -56 60 -106 60 -111 0 -15
-53 -36 -57 -23 -2 6 -35 63 -74 128 l-70 117 62 70 c65 73 183 176 269 234
29 19 54 35 56 35 2 0 -40 -44 -94 -98z"/>
<path d="M1120 1113 c-24 -52 -50 -148 -56 -211 -5 -40 -12 -66 -21 -69 -8 -3
-46 10 -86 30 -95 46 -107 49 -123 36 -18 -15 -18 -87 1 -131 30 -73 124 -125
175 -98 36 19 47 6 53 -67 4 -37 20 -120 35 -185 27 -107 28 -118 13 -142 -17
-28 -12 -40 13 -30 33 13 36 47 11 145 -13 52 -32 139 -41 195 l-16 100 55 56
c61 60 86 122 70 168 -9 27 -48 39 -66 21 -8 -8 -5 -11 10 -11 46 0 31 -63
-19 -85 -18 -7 -36 -11 -40 -9 -20 13 6 196 38 273 17 41 13 52 -6 14z"/>
<path d="M927 1033 c-4 -3 -7 -15 -7 -25 0 -11 -7 -18 -20 -18 -25 0 -26 -22
-2 -43 24 -22 55 -21 75 1 22 25 21 48 -3 72 -21 21 -32 24 -43 13z"/>
<path d="M477 975 c9 -45 47 -143 81 -211 17 -34 28 -64 25 -68 -22 -21 -118
13 -128 45 -8 25 13 52 34 44 13 -5 14 -4 3 7 -19 19 -46 -2 -50 -38 -6 -64
86 -143 168 -144 31 -1 40 -7 75 -56 22 -31 69 -86 105 -122 58 -60 65 -65 68
-44 2 13 -5 29 -17 40 -11 9 -52 53 -91 97 -65 74 -83 105 -60 105 16 0 80 61
96 91 28 55 11 149 -27 149 -8 0 -24 -20 -37 -44 -30 -56 -86 -110 -106 -103
-13 5 -38 53 -124 237 -17 35 -20 38 -15 15z"/>
<path d="M670 935 c0 -7 -7 -18 -17 -23 -23 -13 -9 -42 21 -42 34 0 50 30 30
58 -17 25 -34 29 -34 7z"/>
<path d="M1000 290 c0 -21 28 -40 59 -40 39 0 23 25 -31 48 -25 10 -28 10 -28
-8z"/>
</g>
</svg>
